<?xml version="1.0" encoding="UTF-8" standalone="no"?>
<svg width="401px" height="258px" viewBox="0 0 401 258" version="1.1" xmlns="http://www.w3.org/2000/svg" xmlns:xlink="http://www.w3.org/1999/xlink" xmlns:sketch="http://www.bohemiancoding.com/sketch/ns">
    <!-- Generator: Sketch 3.3.2 (12043) - http://www.bohemiancoding.com/sketch -->
    <title>Imported Layers</title>
    <desc>Created with Sketch.</desc>
    <defs>
        <path id="path-1" d="M88.573,164.834 C88.573,122.532 122.865,88.24 165.167,88.24 C207.469,88.24 241.761,122.532 241.761,164.834 L329.775,164.834 C329.775,73.923 256.078,0.226 165.167,0.226 C74.256,0.226 0.559,73.923 0.559,164.834 L88.573,164.834"></path>
    </defs>
    <g id="Page-1" stroke="none" stroke-width="1" fill="none" fill-rule="evenodd" sketch:type="MSPage">
        <g id="Imported-Layers" sketch:type="MSLayerGroup">
            <path d="M77.473,94.609 C72.309,98.765 67.044,102.981 60.886,105.436 C54.729,107.891 47.432,108.365 41.663,105.098 C34.035,100.778 30.975,90.934 32.092,82.239 C33.21,73.543 37.671,65.688 42.044,58.09 C38.369,58.429 34.601,58.761 31.037,57.803 C27.472,56.845 24.094,54.313 23.2,50.733 C22.409,47.569 23.75,44.096 26.162,41.901 C28.574,39.707 31.905,38.701 35.165,38.665 C40.437,38.607 45.683,41.047 49.035,45.116 C52.387,49.186 53.778,54.801 52.712,59.965 C51.582,65.442 47.971,70.023 45.522,75.05 C43.072,80.077 41.957,86.596 45.52,90.906 C48.658,94.703 54.464,95.323 59.113,93.698 C63.763,92.072 67.533,88.66 71.164,85.332 C74.047,88.866 76.93,92.4 79.813,95.934 L77.473,94.609" id="Fill-1" fill="#F0A67F" sketch:type="MSShapeGroup"></path>
            <path d="M47.757,58.09 C46.293,58.225 44.815,58.359 43.34,58.41 C43.314,58.536 43.269,58.656 43.205,58.768 C39.696,64.869 36.113,71.076 34.309,77.933 C31.799,87.473 33.681,100.299 43.814,104.677 C45.73,105.505 47.645,105.966 49.547,106.128 C48.804,105.838 48.079,105.496 47.377,105.098 C39.748,100.778 36.688,90.934 37.805,82.238 C38.923,73.543 43.385,65.688 47.757,58.09" id="Fill-2" fill="#FAD7BF" sketch:type="MSShapeGroup"></path>
            <path d="M34.725,40.016 C31.59,40.136 28.476,41.215 26.388,43.586 C23.232,47.168 23.903,52.126 27.754,54.826 C29.819,56.274 32.19,56.864 34.639,57.038 C31.926,55.784 29.627,53.593 28.913,50.733 C28.123,47.569 29.463,44.096 31.875,41.901 C32.725,41.128 33.69,40.503 34.725,40.016" id="Fill-3" fill="#FAD7BF" sketch:type="MSShapeGroup"></path>
            <path d="M76.523,93.658 C67.716,100.743 55.771,109.843 43.814,104.677 C33.681,100.299 31.799,87.473 34.309,77.933 C36.113,71.076 39.696,64.869 43.205,58.768 C43.676,57.949 43.092,56.65 42.044,56.746 C37.281,57.182 31.899,57.733 27.754,54.826 C23.903,52.126 23.232,47.168 26.388,43.586 C29.442,40.119 34.686,39.415 38.984,40.431 C43.471,41.492 47.408,44.358 49.646,48.406 C51.804,52.307 52.278,56.961 51.006,61.225 C49.7,65.602 46.95,69.355 44.865,73.372 C41.474,79.905 39.754,89.753 47.331,94.164 C56.379,99.43 65.672,92.182 72.115,86.283 L70.214,86.283 C73.097,89.817 75.98,93.351 78.863,96.885 C79.957,98.226 81.849,96.314 80.764,94.984 C77.881,91.45 74.998,87.916 72.115,84.381 C71.642,83.802 70.705,83.931 70.214,84.381 C66.583,87.706 62.707,91.332 57.843,92.688 C53.704,93.841 48.438,93.147 45.972,89.242 C43.554,85.412 44.632,80.282 46.367,76.403 C48.311,72.057 51.208,68.214 52.96,63.769 C56.355,55.157 53.332,45.08 45.354,40.179 C38.193,35.78 26.176,36.031 22.468,44.877 C20.595,49.346 22.168,54.042 26.003,56.865 C30.649,60.283 36.598,59.933 42.044,59.434 C41.657,58.76 41.27,58.086 40.883,57.411 C34.613,68.311 27.879,80.724 31.626,93.656 C33.118,98.805 36.253,103.571 40.985,106.259 C46.47,109.374 53.258,109.321 59.152,107.475 C66.466,105.183 72.543,100.29 78.424,95.559 C79.772,94.474 77.859,92.583 76.523,93.658" id="Fill-4" fill="#1B1A19" sketch:type="MSShapeGroup"></path>
            <path d="M39.653,40.604 C41.83,41.701 43.787,43.233 45.338,45.116 C48.691,49.186 50.081,54.801 49.016,59.965 C47.885,65.442 44.275,70.023 41.825,75.05 C39.375,80.077 38.26,86.596 41.823,90.906 C43.249,92.631 45.225,93.699 47.393,94.199 C47.372,94.188 47.352,94.176 47.331,94.164 C39.754,89.753 41.474,79.905 44.865,73.372 C46.95,69.355 49.7,65.602 51.006,61.225 C52.278,56.961 51.804,52.307 49.646,48.406 C47.52,44.561 43.86,41.782 39.653,40.604" id="Fill-5" fill="#E67750" sketch:type="MSShapeGroup"></path>
            <path d="M36.357,38.664 C36.296,38.664 36.235,38.664 36.173,38.665 C35.453,38.673 34.731,38.731 34.015,38.836 C35.973,39.109 37.886,39.713 39.653,40.604 C43.86,41.782 47.52,44.561 49.646,48.406 C51.804,52.307 52.278,56.961 51.006,61.225 C49.7,65.602 46.95,69.355 44.865,73.372 C41.474,79.905 39.754,89.753 47.331,94.164 C47.352,94.176 47.372,94.188 47.393,94.199 C48.382,94.428 49.411,94.537 50.446,94.537 C51.243,94.537 52.043,94.472 52.832,94.346 C50.379,93.929 48.113,92.824 46.528,90.906 C42.965,86.596 44.08,80.077 46.53,75.05 C48.98,70.023 52.59,65.442 53.72,59.965 C54.786,54.801 53.396,49.186 50.043,45.116 C46.73,41.095 41.567,38.664 36.357,38.664" id="Fill-6" fill="#1A1310" sketch:type="MSShapeGroup"></path>
            <path d="M321.265,74.993 C326.429,70.837 331.695,66.621 337.852,64.166 C344.01,61.711 351.307,61.237 357.075,64.504 C364.703,68.824 367.763,78.668 366.646,87.363 C365.529,96.058 361.067,103.913 356.694,111.512 C360.37,111.173 364.137,110.841 367.702,111.799 C371.266,112.757 374.644,115.288 375.539,118.869 C376.329,122.033 374.988,125.506 372.576,127.7 C370.164,129.894 366.834,130.901 363.573,130.937 C358.302,130.995 353.056,128.555 349.703,124.485 C346.351,120.416 344.96,114.8 346.026,109.637 C347.157,104.16 350.767,99.579 353.217,94.552 C355.667,89.524 356.782,83.006 353.219,78.695 C350.08,74.899 344.275,74.278 339.625,75.904 C334.975,77.53 331.206,80.942 327.574,84.27 C324.691,80.736 321.808,77.201 318.925,73.667 L321.265,74.993" id="Fill-7" fill="#F0A67F" sketch:type="MSShapeGroup"></path>
            <path d="M349.191,63.473 C349.934,63.763 350.659,64.106 351.362,64.504 C358.99,68.824 362.05,78.668 360.933,87.363 C359.816,96.058 355.354,103.913 350.981,111.512 C352.445,111.377 353.924,111.243 355.398,111.191 C355.424,111.066 355.469,110.945 355.534,110.833 C359.043,104.733 362.625,98.526 364.43,91.669 C366.94,82.129 365.057,69.302 354.924,64.925 C353.008,64.097 351.094,63.635 349.191,63.473" id="Fill-8" fill="#FAD7BF" sketch:type="MSShapeGroup"></path>
            <path d="M364.099,112.564 C366.812,113.818 369.111,116.009 369.826,118.869 C370.616,122.032 369.275,125.506 366.863,127.7 C366.013,128.473 365.049,129.099 364.014,129.586 C367.148,129.466 370.262,128.387 372.351,126.016 C375.507,122.433 374.835,117.476 370.984,114.775 C368.92,113.328 366.548,112.738 364.099,112.564" id="Fill-9" fill="#FAD7BF" sketch:type="MSShapeGroup"></path>
            <path d="M322.216,75.944 C331.023,68.858 342.967,59.759 354.924,64.925 C365.057,69.302 366.94,82.129 364.43,91.669 C362.625,98.526 359.043,104.733 355.534,110.833 C355.062,111.653 355.647,112.952 356.694,112.856 C361.458,112.419 366.839,111.869 370.984,114.775 C374.835,117.476 375.507,122.433 372.351,126.016 C369.297,129.483 364.053,130.187 359.754,129.17 C355.267,128.109 351.331,125.243 349.092,121.196 C346.934,117.295 346.46,112.641 347.733,108.377 C349.039,103.999 351.789,100.246 353.873,96.23 C357.265,89.696 358.985,79.848 351.407,75.438 C342.359,70.171 333.067,77.42 326.624,83.319 L328.525,83.319 C325.642,79.785 322.759,76.251 319.876,72.717 C318.781,71.376 316.889,73.288 317.974,74.618 C320.858,78.152 323.741,81.686 326.624,85.22 C327.097,85.8 328.033,85.671 328.525,85.22 C332.156,81.896 336.032,78.269 340.896,76.914 C345.035,75.76 350.301,76.455 352.767,80.36 C355.184,84.19 354.106,89.32 352.371,93.199 C350.428,97.545 347.531,101.387 345.779,105.832 C342.384,114.445 345.406,124.522 353.384,129.422 C360.546,133.822 372.562,133.571 376.27,124.724 C378.144,120.255 376.571,115.559 372.735,112.737 C368.089,109.318 362.14,109.668 356.694,110.167 C357.081,110.842 357.468,111.516 357.855,112.19 C364.125,101.29 370.859,88.877 367.112,75.946 C365.62,70.796 362.486,66.03 357.754,63.343 C352.268,60.228 345.48,60.28 339.586,62.127 C332.273,64.418 326.195,69.311 320.315,74.043 C318.966,75.127 320.879,77.019 322.216,75.944" id="Fill-10" fill="#1B1A19" sketch:type="MSShapeGroup"></path>
            <path d="M125.573,185.834 C125.573,143.532 159.865,109.24 202.167,109.24 C244.469,109.24 278.761,143.532 278.761,185.834 L366.775,185.834 C366.775,94.923 293.078,21.226 202.167,21.226 C111.256,21.226 37.559,94.923 37.559,185.834 L125.573,185.834" id="Fill-11" fill="#DA2A4B" sketch:type="MSShapeGroup"></path>
            <path d="M125.573,185.834 L127.086,185.834 C127.086,165.096 135.487,146.335 149.077,132.743 C162.668,119.154 181.429,110.753 202.167,110.752 C222.905,110.753 241.666,119.154 255.258,132.743 C268.847,146.335 277.248,165.096 277.248,185.834 L277.248,187.346 L368.287,187.346 L368.287,185.834 C368.286,94.088 293.914,19.714 202.167,19.713 C110.421,19.714 36.047,94.088 36.047,185.834 L36.047,187.346 L127.086,187.346 L127.086,185.834 L125.573,185.834 L125.573,184.322 L37.559,184.322 L37.559,185.834 L39.071,185.834 C39.072,140.791 57.324,100.027 86.841,70.508 C116.36,40.991 157.124,22.739 202.167,22.738 C247.209,22.739 287.974,40.991 317.493,70.508 C347.01,100.027 365.262,140.791 365.263,185.834 L366.775,185.834 L366.775,184.322 L278.761,184.322 L278.761,185.834 L280.273,185.834 C280.272,142.697 245.304,107.729 202.167,107.728 C159.03,107.729 124.062,142.697 124.061,185.834 L125.573,185.834 L125.573,184.322 L125.573,185.834" id="Fill-12" fill="#1B1A19" sketch:type="MSShapeGroup"></path>
            <g id="Group-23" transform="translate(37.000000, 21.000000)">
                <mask id="mask-2" sketch:name="Clip 14" fill="white">
                    <use xlink:href="#path-1"></use>
                </mask>
                <g id="Clip-14"></g>
                <path d="M310.653,162.389 C310.653,242.738 245.516,307.874 165.167,307.874 C84.818,307.874 19.682,242.738 19.682,162.389 C19.682,82.039 84.818,16.903 165.167,16.903 C245.516,16.903 310.653,82.039 310.653,162.389" id="Fill-13" fill="#E26351" sketch:type="MSShapeGroup" mask="url(#mask-2)"></path>
                <path d="M165.167,309.386 C145.323,309.386 126.072,305.499 107.948,297.834 C90.444,290.43 74.723,279.831 61.224,266.332 C47.724,252.832 37.125,237.112 29.722,219.607 C22.056,201.484 18.169,182.232 18.169,162.389 C18.169,142.545 22.056,123.294 29.722,105.17 C37.125,87.665 47.724,71.945 61.224,58.446 C74.723,44.946 90.444,34.347 107.948,26.943 C126.072,19.278 145.323,15.391 165.167,15.391 C185.011,15.391 204.262,19.278 222.386,26.943 C239.89,34.347 255.61,44.946 269.11,58.446 C282.609,71.945 293.208,87.665 300.612,105.17 C308.278,123.294 312.165,142.545 312.165,162.389 C312.165,182.232 308.278,201.484 300.612,219.607 C293.208,237.112 282.609,252.832 269.11,266.332 C255.61,279.831 239.89,290.43 222.386,297.834 C204.262,305.499 185.011,309.386 165.167,309.386 M165.167,18.415 C145.73,18.415 126.875,22.222 109.127,29.729 C91.983,36.98 76.585,47.362 63.363,60.584 C50.14,73.807 39.759,89.204 32.507,106.348 C25,124.097 21.194,142.952 21.194,162.389 C21.194,181.825 25,200.68 32.507,218.429 C39.759,235.573 50.14,250.97 63.363,264.193 C76.585,277.416 91.983,287.797 109.127,295.048 C126.875,302.555 145.73,306.362 165.167,306.362 C184.604,306.362 203.458,302.555 221.207,295.048 C238.352,287.797 253.749,277.416 266.971,264.193 C280.194,250.97 290.575,235.573 297.827,218.429 C305.334,200.68 309.14,181.825 309.14,162.389 C309.14,142.952 305.334,124.097 297.827,106.348 C290.575,89.204 280.194,73.807 266.971,60.584 C253.749,47.362 238.352,36.98 221.207,29.729 C203.458,22.222 184.604,18.415 165.167,18.415" id="Fill-15" fill="#1B1A19" sketch:type="MSShapeGroup" mask="url(#mask-2)"></path>
                <path d="M291.401,160.812 C291.401,230.529 234.884,287.045 165.167,287.045 C95.45,287.045 38.933,230.529 38.933,160.812 C38.933,91.095 95.45,34.578 165.167,34.578 C234.884,34.578 291.401,91.095 291.401,160.812" id="Fill-16" fill="#FCDE6F" sketch:type="MSShapeGroup" mask="url(#mask-2)"></path>
                <path d="M165.167,288.558 C147.922,288.558 131.192,285.18 115.442,278.518 C100.23,272.084 86.568,262.873 74.837,251.142 C63.105,239.411 53.895,225.749 47.461,210.537 C40.799,194.787 37.421,178.057 37.421,160.812 C37.421,143.567 40.799,126.837 47.461,111.087 C53.895,95.875 63.105,82.213 74.837,70.482 C86.568,58.75 100.23,49.54 115.442,43.105 C131.192,36.444 147.922,33.066 165.167,33.066 C182.412,33.066 199.142,36.444 214.892,43.105 C230.104,49.54 243.766,58.75 255.497,70.482 C267.228,82.213 276.44,95.875 282.873,111.087 C289.535,126.837 292.913,143.567 292.913,160.812 C292.913,178.057 289.535,194.787 282.873,210.537 C276.44,225.749 267.228,239.411 255.497,251.142 C243.766,262.873 230.104,272.084 214.892,278.518 C199.142,285.18 182.412,288.558 165.167,288.558 M165.167,36.091 C148.329,36.091 131.995,39.388 116.62,45.891 C101.769,52.173 88.43,61.166 76.976,72.621 C65.521,84.075 56.528,97.414 50.246,112.265 C43.743,127.64 40.446,143.974 40.446,160.812 C40.446,177.65 43.743,193.983 50.246,209.359 C56.528,224.21 65.521,237.548 76.976,249.003 C88.43,260.458 101.769,269.451 116.62,275.733 C131.995,282.236 148.329,285.533 165.167,285.533 C182.005,285.533 198.338,282.236 213.714,275.733 C228.565,269.451 241.904,260.458 253.358,249.003 C264.813,237.548 273.806,224.21 280.088,209.359 C286.591,193.983 289.888,177.65 289.888,160.812 C289.888,143.974 286.591,127.64 280.088,112.265 C273.806,97.414 264.813,84.075 253.358,72.621 C241.904,61.166 228.565,52.173 213.714,45.891 C198.338,39.388 182.005,36.091 165.167,36.091" id="Fill-17" fill="#1B1A19" sketch:type="MSShapeGroup" mask="url(#mask-2)"></path>
                <path d="M274.366,160.845 C274.366,221.154 225.476,270.044 165.167,270.044 C104.858,270.044 55.968,221.154 55.968,160.845 C55.968,100.536 104.858,51.646 165.167,51.646 C225.476,51.646 274.366,100.536 274.366,160.845" id="Fill-18" fill="#7CAE71" sketch:type="MSShapeGroup" mask="url(#mask-2)"></path>
                <path d="M165.167,271.556 C135.595,271.556 107.793,260.04 86.882,239.13 C65.972,218.219 54.456,190.417 54.456,160.845 C54.456,131.273 65.972,103.471 86.882,82.56 C107.793,61.65 135.595,50.134 165.167,50.134 C194.739,50.134 222.541,61.65 243.452,82.56 C264.362,103.471 275.878,131.273 275.878,160.845 C275.878,190.417 264.362,218.219 243.452,239.13 C222.541,260.04 194.739,271.556 165.167,271.556 M165.167,53.159 C136.403,53.159 109.361,64.36 89.021,84.699 C68.682,105.039 57.48,132.081 57.48,160.845 C57.48,189.609 68.682,216.652 89.021,236.991 C109.361,257.33 136.403,268.532 165.167,268.532 C193.931,268.532 220.974,257.33 241.313,236.991 C261.652,216.652 272.854,189.609 272.854,160.845 C272.854,132.081 261.652,105.039 241.313,84.699 C220.974,64.36 193.931,53.159 165.167,53.159" id="Fill-19" fill="#1B1A19" sketch:type="MSShapeGroup" mask="url(#mask-2)"></path>
                <path d="M257.346,163.013 C257.346,213.922 216.076,255.192 165.167,255.192 C114.258,255.192 72.988,213.922 72.988,163.013 C72.988,112.104 114.258,70.834 165.167,70.834 C216.076,70.834 257.346,112.104 257.346,163.013" id="Fill-20" fill="#71B4CE" sketch:type="MSShapeGroup" mask="url(#mask-2)"></path>
                <path d="M165.167,256.704 C140.141,256.704 116.613,246.958 98.917,229.262 C81.221,211.566 71.476,188.038 71.476,163.013 C71.476,137.987 81.221,114.459 98.917,96.763 C116.613,79.067 140.141,69.321 165.167,69.321 C190.193,69.321 213.721,79.067 231.417,96.763 C249.113,114.459 258.858,137.987 258.858,163.013 C258.858,188.038 249.113,211.566 231.417,229.262 C213.721,246.958 190.193,256.704 165.167,256.704 M165.167,72.346 C140.949,72.346 118.181,81.777 101.056,98.902 C83.931,116.026 74.5,138.795 74.5,163.013 C74.5,187.231 83.931,209.999 101.056,227.124 C118.181,244.248 140.949,253.679 165.167,253.679 C189.385,253.679 212.153,244.248 229.278,227.124 C246.403,209.999 255.834,187.231 255.834,163.013 C255.834,138.795 246.403,116.026 229.278,98.902 C212.153,81.777 189.385,72.346 165.167,72.346" id="Fill-21" fill="#1B1A19" sketch:type="MSShapeGroup" mask="url(#mask-2)"></path>
                <path d="M332.632,167.69 L238.904,167.69 L238.904,164.834 C238.904,145.138 231.234,126.621 217.307,112.694 C203.38,98.767 184.863,91.097 165.167,91.097 C145.471,91.097 126.954,98.767 113.027,112.694 C99.1,126.621 91.43,145.138 91.43,164.834 L91.43,167.69 L-2.298,167.69 L-2.298,164.834 C-2.298,142.228 2.13,120.296 10.864,99.648 C19.298,79.706 31.373,61.797 46.752,46.418 C62.13,31.04 80.039,18.965 99.981,10.53 C120.629,1.797 142.561,-2.631 165.167,-2.631 C187.774,-2.631 209.705,1.797 230.353,10.53 C250.295,18.965 268.204,31.04 283.583,46.418 C298.961,61.797 311.036,79.706 319.47,99.648 C328.204,120.296 332.632,142.228 332.632,164.834 L332.632,167.69 M244.567,161.977 L326.894,161.977 C326.538,141.149 322.274,120.943 314.209,101.874 C306.062,82.613 294.399,65.314 279.543,50.458 C264.687,35.602 247.388,23.939 228.127,15.792 C208.187,7.359 187.005,3.082 165.167,3.082 C143.33,3.082 122.147,7.359 102.207,15.792 C82.946,23.939 65.647,35.602 50.791,50.458 C35.935,65.314 24.272,82.613 16.125,101.874 C8.06,120.943 3.797,141.149 3.44,161.977 L85.767,161.977 C86.474,141.826 94.656,122.985 108.987,108.654 C123.993,93.648 143.945,85.384 165.167,85.384 C186.389,85.384 206.341,93.648 221.347,108.654 C235.678,122.985 243.86,141.826 244.567,161.977" id="Fill-22" fill="#1B1A19" sketch:type="MSShapeGroup" mask="url(#mask-2)"></path>
            </g>
            <path d="M204.129,35.244 C206.186,34.322 208.929,33.081 210.964,34.704 C212.56,35.976 213.429,38.167 214.382,39.913 C216.287,43.406 219.158,47.04 223.586,46.729 C227.623,46.445 230.552,42.748 230.18,38.765 C230.005,36.898 229.063,34.939 227.398,33.961 C225.344,32.755 223.099,33.69 221.208,34.731 C219.313,35.773 221.006,38.677 222.904,37.633 C223.647,37.224 224.838,36.425 225.702,36.863 C226.325,37.18 226.668,38.079 226.793,38.705 C227.098,40.224 226.437,41.943 225.132,42.8 C222.029,44.839 219.174,41.542 217.773,39.099 C216.25,36.444 215.018,33.264 212.316,31.565 C209.154,29.576 205.518,30.96 202.432,32.342 C200.462,33.225 202.169,36.122 204.129,35.244" id="Fill-24" fill="#1B1A19" sketch:type="MSShapeGroup"></path>
            <path d="M199.424,32.342 C196.42,30.997 192.909,29.635 189.772,31.419 C186.916,33.043 185.637,36.39 184.084,39.099 C182.699,41.513 179.982,44.714 176.879,42.889 C175.549,42.106 174.85,40.515 175.031,39.001 C175.111,38.325 175.392,37.359 176.022,36.967 C176.945,36.394 178.129,37.18 178.952,37.633 C180.848,38.676 182.546,35.775 180.648,34.731 C178.758,33.691 176.511,32.756 174.458,33.961 C172.783,34.945 171.865,36.892 171.677,38.765 C171.277,42.747 174.252,46.447 178.27,46.729 C182.701,47.04 185.566,43.405 187.475,39.913 C188.427,38.171 189.3,35.976 190.892,34.704 C192.927,33.078 195.673,34.324 197.728,35.244 C199.685,36.121 201.396,33.226 199.424,32.342" id="Fill-25" fill="#1B1A19" sketch:type="MSShapeGroup"></path>
            <path d="M194.584,46.281 L207.272,46.281 C209.435,46.281 209.438,42.92 207.272,42.92 L194.584,42.92 C192.422,42.92 192.418,46.281 194.584,46.281" id="Fill-26" fill="#1B1A19" sketch:type="MSShapeGroup"></path>
            <path d="M358.118,128.473 C358.149,128.557 358.18,128.643 358.211,128.727 C358.5,128.825 358.791,128.915 359.086,128.998 C358.758,128.833 358.435,128.657 358.118,128.473 M351.346,75.402 C351.366,75.414 351.387,75.426 351.407,75.438 C358.985,79.848 357.265,89.696 353.873,96.23 C352.051,99.74 349.721,103.049 348.291,106.75 C348.787,107.665 349.272,108.578 349.751,109.503 C350.912,104.085 354.484,99.538 356.914,94.552 C359.363,89.524 360.479,83.006 356.915,78.695 C355.49,76.971 353.514,75.902 351.346,75.402" id="Fill-27" fill="#E67750" sketch:type="MSShapeGroup"></path>
            <path d="M358.211,128.727 C358.435,129.339 358.658,129.96 358.875,130.574 C360.027,130.813 361.203,130.938 362.382,130.938 C362.443,130.938 362.504,130.937 362.565,130.937 C363.285,130.929 364.008,130.871 364.724,130.766 C362.765,130.493 360.853,129.888 359.086,128.998 C358.791,128.915 358.5,128.825 358.211,128.727 M348.293,75.064 C347.496,75.064 346.695,75.129 345.906,75.256 C348.36,75.673 350.625,76.778 352.211,78.695 C355.774,83.006 354.659,89.524 352.209,94.552 C350.6,97.853 348.491,100.962 346.912,104.259 C347.377,105.082 347.839,105.917 348.291,106.75 C349.721,103.049 352.051,99.74 353.873,96.23 C357.265,89.696 358.985,79.848 351.407,75.438 C351.387,75.426 351.366,75.414 351.346,75.402 C350.357,75.174 349.328,75.064 348.293,75.064" id="Fill-28" fill="#1A1310" sketch:type="MSShapeGroup"></path>
            <path d="M344.984,109.808 C343.983,114.924 345.38,120.461 348.695,124.485 C350.027,126.101 351.657,127.461 353.469,128.509 C352.752,126.619 351.999,124.742 351.209,122.874 C349.321,118.411 347.245,114.054 344.984,109.808" id="Fill-29" fill="#DA293B" sketch:type="MSShapeGroup"></path>
            <path d="M355.944,126.985 C356.341,128.022 356.728,129.065 357.105,130.112 C357.687,130.296 358.277,130.451 358.875,130.574 C358.658,129.96 358.435,129.339 358.211,128.727 C358.18,128.643 358.149,128.557 358.118,128.473 C357.358,128.03 356.63,127.533 355.944,126.985 M346.912,104.259 C346.639,104.828 346.382,105.403 346.146,105.986 C347.274,108.015 348.355,110.06 349.398,112.141 C349.445,111.3 349.553,110.463 349.723,109.637 C349.732,109.592 349.742,109.548 349.751,109.503 C349.272,108.578 348.787,107.665 348.291,106.75 C347.839,105.917 347.377,105.082 346.912,104.259" id="Fill-30" fill="#1A1310" sketch:type="MSShapeGroup"></path>
            <path d="M346.146,105.986 C345.669,107.167 345.278,108.378 345.018,109.637 C345.006,109.694 344.995,109.751 344.984,109.808 C347.245,114.054 349.321,118.411 351.209,122.874 C351.999,124.742 352.752,126.619 353.469,128.509 C354.618,129.173 355.84,129.712 357.105,130.112 C356.728,129.065 356.341,128.022 355.944,126.985 C355.013,126.242 354.158,125.406 353.4,124.485 C350.584,121.067 349.152,116.557 349.398,112.141 C348.355,110.06 347.274,108.015 346.146,105.986" id="Fill-31" fill="#1A1310" sketch:type="MSShapeGroup"></path>
            <path d="M181.323,4.344 C182.87,4.018 184.472,4.725 185.314,6.051 C186.471,7.871 189.38,6.187 188.216,4.355 C186.533,1.707 183.49,0.458 180.43,1.103 C178.315,1.548 179.21,4.789 181.323,4.344" id="Fill-32" fill="#1B1A19" sketch:type="MSShapeGroup"></path>
            <path d="M214.825,8.275 C217.159,7.213 219.493,6.15 221.828,5.087 C223.793,4.192 222.087,1.295 220.132,2.185 C217.797,3.248 215.463,4.311 213.129,5.374 C211.163,6.268 212.869,9.166 214.825,8.275" id="Fill-33" fill="#1B1A19" sketch:type="MSShapeGroup"></path>
            <path d="M204.363,68.006 C170.997,68.006 138.049,81.813 115.596,107.323 C102.061,122.7 92.731,141.273 88.567,161.217 C90.037,162.071 91.416,163.085 92.704,164.216 C93.006,162.598 93.346,160.987 93.721,159.388 C98.027,138.38 108.369,119.074 123.882,103.56 C144.793,82.65 172.595,71.134 202.167,71.134 C224.074,71.134 245.009,77.454 262.891,89.23 C267.782,92.355 272.405,95.93 276.68,99.958 C277.961,101.126 279.217,102.326 280.452,103.56 C296.65,119.759 307.211,140.095 311.148,162.184 C312.127,161.523 313.148,160.931 314.207,160.421 C309.764,142.471 302.72,124.999 291.755,110.055 C278.296,91.71 259.37,79.049 237.559,72.706 C226.698,69.547 215.507,68.006 204.363,68.006" id="Fill-34" fill="#ED9F4F" sketch:type="MSShapeGroup"></path>
            <path d="M276.68,99.958 C279.368,102.491 281.919,105.203 284.316,108.097 C297.359,123.849 305.248,143.215 309.997,163.006 C310.374,162.721 310.758,162.447 311.148,162.184 C307.211,140.095 296.65,119.759 280.452,103.56 C279.217,102.326 277.961,101.126 276.68,99.958 M202.167,71.134 C172.595,71.134 144.793,82.65 123.882,103.56 C108.369,119.074 98.027,138.38 93.721,159.388 C102.237,123.104 129.31,92.02 164.67,79.446 C177.208,74.987 190.632,72.728 204.037,72.728 C224.817,72.728 245.551,78.154 262.891,89.23 C245.009,77.454 224.074,71.134 202.167,71.134" id="Fill-35" fill="#1A1411" sketch:type="MSShapeGroup"></path>
            <path d="M204.233,51.006 C166.185,51.006 128.571,66.478 102.764,95.334 C86.528,113.489 75.46,135.724 71.028,159.591 C72.623,158.946 74.291,158.556 75.986,158.392 C77.856,149.083 80.81,140.068 84.713,131.495 C91.135,116.52 100.258,103.061 111.837,91.482 C123.568,79.75 137.23,70.54 152.442,64.105 C168.192,57.444 184.922,54.066 202.167,54.066 C219.412,54.066 236.142,57.444 251.892,64.105 C256.624,66.107 261.204,68.376 265.624,70.907 C274.612,75.825 282.934,81.951 290.284,89.321 C291.029,90.031 291.767,90.752 292.497,91.482 C304.228,103.213 313.44,116.875 319.873,132.087 C323.53,140.733 326.198,149.673 327.86,158.833 C328.996,159.117 330.103,159.514 331.151,160.029 C326.068,137.831 317.566,116.113 303.81,97.846 C288.138,77.033 266.148,62.925 241.105,55.988 C229.029,52.643 216.608,51.006 204.233,51.006" id="Fill-36" fill="#DA3332" sketch:type="MSShapeGroup"></path>
            <path d="M290.284,89.321 C292.365,91.407 294.369,93.595 296.286,95.88 C311.312,113.794 320.466,135.855 325.951,158.463 C326.593,158.552 327.231,158.675 327.86,158.833 C326.198,149.673 323.53,140.733 319.873,132.087 C313.44,116.875 304.228,103.213 292.497,91.482 C291.767,90.752 291.029,90.031 290.284,89.321 M202.167,54.066 C184.922,54.066 168.192,57.444 152.442,64.105 C137.23,70.54 123.568,79.75 111.837,91.482 C100.258,103.061 91.135,116.52 84.713,131.495 C98.989,100.135 125.944,74.773 158.847,63.283 C173.204,58.27 188.598,55.719 203.977,55.719 C225.484,55.719 246.974,60.703 265.624,70.907 C261.204,68.376 256.624,66.107 251.892,64.105 C236.142,57.444 219.412,54.066 202.167,54.066" id="Fill-37" fill="#1A0907" sketch:type="MSShapeGroup"></path>
            <path d="M201.589,33.893 C201.145,33.901 200.705,33.911 200.261,33.923 C200.091,34.69 199.36,35.407 198.466,35.407 C198.229,35.407 197.98,35.357 197.728,35.244 C196.871,34.86 195.893,34.419 194.897,34.154 C193.705,34.226 192.511,34.311 191.321,34.408 C191.175,34.494 191.032,34.592 190.892,34.704 C190.144,35.301 189.555,36.103 189.042,36.965 C193.384,36.583 197.761,36.391 202.167,36.391 C205.695,36.391 209.204,36.514 212.692,36.759 C212.208,35.976 211.654,35.254 210.964,34.704 C210.328,34.196 209.622,33.969 208.89,33.924 C208.784,33.921 208.679,33.919 208.574,33.916 C207.055,33.928 205.451,34.652 204.129,35.244 C203.876,35.357 203.627,35.408 203.39,35.408 C202.484,35.408 201.747,34.671 201.589,33.893" id="Fill-38" fill="#9D262E" sketch:type="MSShapeGroup"></path>
            <path d="M202.167,36.391 C197.761,36.391 193.384,36.583 189.042,36.965 C188.56,37.773 188.146,38.635 187.73,39.434 C193.234,38.863 198.777,38.576 204.317,38.576 C207.49,38.576 210.666,38.67 213.832,38.859 C213.476,38.161 213.11,37.437 212.692,36.759 C209.204,36.514 205.695,36.391 202.167,36.391" id="Fill-39" fill="#130603" sketch:type="MSShapeGroup"></path>
            <path d="M225.137,36.736 C224.369,36.736 223.495,37.308 222.904,37.633 C222.784,37.699 222.665,37.749 222.547,37.785 C223.945,37.978 225.337,38.191 226.727,38.425 C226.565,37.836 226.236,37.135 225.702,36.863 C225.525,36.773 225.334,36.736 225.137,36.736 M214.979,34.205 C215.617,35.113 216.16,36.106 216.686,37.094 C218.214,37.243 219.737,37.416 221.255,37.612 C220.291,37.009 219.921,35.443 221.204,34.733 C219.131,34.516 217.056,34.34 214.979,34.205" id="Fill-40" fill="#9D262E" sketch:type="MSShapeGroup"></path>
            <path d="M216.686,37.094 C217.048,37.774 217.402,38.452 217.773,39.099 C217.782,39.114 217.791,39.13 217.8,39.146 C220.811,39.401 223.816,39.744 226.803,40.173 C226.889,39.686 226.89,39.185 226.793,38.705 C226.775,38.616 226.753,38.522 226.727,38.425 C225.337,38.191 223.945,37.978 222.547,37.785 C222.389,37.833 222.234,37.856 222.084,37.856 C221.781,37.856 221.499,37.764 221.255,37.612 C219.737,37.416 218.214,37.243 216.686,37.094" id="Fill-41" fill="#130603" sketch:type="MSShapeGroup"></path>
            <path d="M186.417,34.887 C184.736,35.077 183.057,35.293 181.383,35.535 C181.769,36.548 180.92,37.855 179.772,37.855 C179.511,37.855 179.233,37.787 178.952,37.633 C178.334,37.293 177.513,36.766 176.753,36.766 C176.499,36.766 176.253,36.824 176.022,36.967 C175.429,37.336 175.145,38.213 175.047,38.878 C178.347,38.263 181.672,37.762 185.02,37.374 C185.462,36.539 185.912,35.69 186.417,34.887" id="Fill-42" fill="#9D262E" sketch:type="MSShapeGroup"></path>
            <path d="M185.02,37.374 C181.672,37.762 178.347,38.263 175.047,38.878 C175.041,38.92 175.035,38.961 175.031,39.001 C174.941,39.752 175.068,40.522 175.381,41.203 C178.098,40.704 180.833,40.276 183.578,39.919 C183.762,39.641 183.931,39.365 184.084,39.099 C184.402,38.544 184.708,37.962 185.02,37.374" id="Fill-43" fill="#130603" sketch:type="MSShapeGroup"></path>
            <path d="M229.2,35.775 C229.754,36.68 230.084,37.736 230.18,38.765 C230.189,38.861 230.196,38.956 230.201,39.052 C240.184,40.979 249.939,43.948 259.386,47.943 C276.89,55.347 292.61,65.946 306.11,79.446 C319.609,92.945 330.208,108.665 337.612,126.17 C342.403,137.496 345.717,149.261 347.53,161.337 C348.434,161.408 349.333,161.532 350.223,161.706 C344.594,135.212 334.773,109.113 318.397,87.347 C300.584,63.672 275.597,47.608 247.138,39.663 C241.222,38.011 235.229,36.717 229.2,35.775" id="Fill-44" fill="#9D262E" sketch:type="MSShapeGroup"></path>
            <path d="M230.201,39.052 C230.231,39.605 230.197,40.153 230.107,40.684 C260.733,45.761 289.52,60.068 309.926,84.207 C328.43,106.097 339.226,133.481 345.322,161.269 C345.45,161.267 345.578,161.266 345.706,161.266 C346.314,161.266 346.923,161.29 347.53,161.337 C345.717,149.261 342.403,137.496 337.612,126.17 C330.208,108.665 319.609,92.945 306.11,79.446 C292.61,65.946 276.89,55.347 259.386,47.943 C249.939,43.948 240.184,40.979 230.201,39.052" id="Fill-45" fill="#130603" sketch:type="MSShapeGroup"></path>
            <path d="M172.014,37.175 C140.258,43.702 110.615,59.777 88.538,84.457 C69.189,106.087 56.253,132.883 51.871,161.545 C53.061,161.36 54.265,161.266 55.469,161.266 C55.852,161.266 56.236,161.275 56.618,161.294 C57.557,155.303 58.894,149.406 60.601,143.634 C62.263,137.712 64.305,131.884 66.722,126.17 C74.125,108.665 84.724,92.945 98.224,79.446 C111.723,65.946 127.444,55.347 144.948,47.943 C153.608,44.281 162.525,41.481 171.641,39.555 C171.639,39.294 171.65,39.03 171.677,38.765 C171.73,38.233 171.842,37.695 172.014,37.175" id="Fill-46" fill="#9D262E" sketch:type="MSShapeGroup"></path>
            <path d="M171.641,39.555 C162.525,41.481 153.608,44.281 144.948,47.943 C127.444,55.347 111.723,65.946 98.224,79.446 C84.724,92.945 74.125,108.665 66.722,126.17 C64.305,131.884 62.263,137.712 60.601,143.634 C73.571,99.78 107.909,63.158 151.257,47.66 C158.003,45.248 164.963,43.309 172.04,41.853 C171.788,41.124 171.649,40.35 171.641,39.555" id="Fill-47" fill="#130603" sketch:type="MSShapeGroup"></path>
            <path d="M221.204,34.733 C219.921,35.443 220.291,37.009 221.255,37.612 C221.499,37.764 221.781,37.856 222.084,37.856 C222.234,37.856 222.389,37.833 222.547,37.785 C222.665,37.749 222.784,37.699 222.904,37.633 C223.495,37.308 224.369,36.736 225.137,36.736 C225.334,36.736 225.525,36.773 225.702,36.863 C226.236,37.135 226.565,37.836 226.727,38.425 C226.753,38.522 226.775,38.616 226.793,38.705 C226.89,39.185 226.889,39.686 226.803,40.173 C227.905,40.331 229.008,40.502 230.107,40.684 C230.197,40.153 230.231,39.605 230.201,39.052 C230.196,38.956 230.189,38.861 230.18,38.765 C230.084,37.736 229.754,36.68 229.2,35.775 C226.544,35.36 223.872,35.012 221.204,34.733 M208.89,33.924 C209.622,33.969 210.328,34.196 210.964,34.704 C211.654,35.254 212.208,35.976 212.692,36.759 C213.11,37.437 213.476,38.161 213.832,38.859 C215.157,38.938 216.477,39.033 217.8,39.146 C217.791,39.13 217.782,39.114 217.773,39.099 C217.402,38.452 217.048,37.774 216.686,37.094 C216.16,36.106 215.617,35.113 214.979,34.205 C212.951,34.073 210.919,33.979 208.89,33.924 M204.544,33.866 C203.56,33.866 202.573,33.875 201.589,33.893 C201.747,34.671 202.484,35.408 203.39,35.408 C203.627,35.408 203.876,35.357 204.129,35.244 C205.451,34.652 207.055,33.928 208.574,33.916 C207.229,33.882 205.888,33.866 204.544,33.866" id="Fill-48" fill="#130603" sketch:type="MSShapeGroup"></path>
            <path d="M181.383,35.535 C178.244,35.99 175.118,36.537 172.014,37.175 C171.842,37.695 171.73,38.233 171.677,38.765 C171.65,39.03 171.639,39.294 171.641,39.555 C171.649,40.35 171.788,41.124 172.04,41.853 C173.152,41.624 174.263,41.408 175.381,41.203 C175.068,40.522 174.941,39.752 175.031,39.001 C175.035,38.961 175.041,38.92 175.047,38.878 C175.145,38.213 175.429,37.336 176.022,36.967 C176.253,36.824 176.499,36.766 176.753,36.766 C177.513,36.766 178.334,37.293 178.952,37.633 C179.233,37.787 179.511,37.855 179.772,37.855 C180.92,37.855 181.769,36.548 181.383,35.535 M191.321,34.408 C189.683,34.543 188.05,34.702 186.417,34.887 C185.912,35.69 185.462,36.539 185.02,37.374 C184.708,37.962 184.402,38.544 184.084,39.099 C183.931,39.365 183.762,39.641 183.578,39.919 C184.959,39.739 186.344,39.577 187.73,39.434 C188.146,38.635 188.56,37.773 189.042,36.965 C189.555,36.103 190.144,35.301 190.892,34.704 C191.032,34.592 191.175,34.494 191.321,34.408 M200.261,33.923 C198.471,33.97 196.683,34.048 194.897,34.154 C195.893,34.419 196.871,34.86 197.728,35.244 C197.98,35.357 198.229,35.407 198.466,35.407 C199.36,35.407 200.091,34.69 200.261,33.923" id="Fill-49" fill="#130603" sketch:type="MSShapeGroup"></path>
            <path d="M384.349,207.252 C385.219,205.267 385.916,203.168 386.397,201.024 C387.135,197.733 387.357,194.337 386.883,191.089 C386.488,188.378 385.611,185.77 384.144,183.413 C379.773,176.393 369.117,173.276 362.812,178.627 C356.752,169.848 343.202,167.434 334.484,173.582 L332.763,170.23 C327.709,166.308 320.313,166.389 314.599,169.266 C308.886,172.144 304.676,177.386 301.659,183.027 C300.941,184.369 300.234,185.797 298.996,186.683 C297.141,188.009 294.638,187.771 292.37,187.531 C283.773,186.624 274.609,186.637 267.083,190.892 C262.384,193.548 258.664,198.338 257.407,203.476 C257.267,204.047 257.16,204.624 257.083,205.202 C256.745,207.748 257.034,210.329 258.133,212.737 C252.619,210.696 246.246,214.753 244.37,220.293 C244.126,221.012 243.955,221.754 243.874,222.512 C243.174,229.118 248.011,235.497 254.197,237.918 C260.383,240.339 267.491,239.349 273.572,236.677 C271.984,243.652 279.318,249.687 286.359,250.95 C289.656,251.541 293.024,251.524 296.388,251.507 C300.21,251.488 304.027,251.469 307.731,252.341 C310.565,253.008 313.259,254.183 316.088,254.872 C327.498,257.652 339.454,252.143 348.373,244.503 C350.496,242.684 352.599,240.687 355.256,239.818 C358.37,238.8 361.743,239.486 365.004,239.795 C374.859,240.73 385.02,237.981 393.059,232.204 C395.17,230.687 397.202,228.884 398.22,226.492 C399.204,224.178 399.08,221.601 398.24,219.212 C397.614,217.432 396.592,215.756 395.326,214.373 C392.363,211.135 388.305,209.156 384.349,207.252" id="Fill-50" fill="#E7E7E4" sketch:type="MSShapeGroup"></path>
            <path d="M395.639,214.736 C394.84,215.51 393.959,216.214 393.059,216.861 C386.053,221.896 377.432,224.632 368.809,224.632 C367.538,224.632 366.269,224.572 365.004,224.452 C363.024,224.265 361.004,223.938 359.026,223.938 C357.744,223.938 356.48,224.075 355.257,224.475 C352.599,225.344 350.495,227.341 348.373,229.16 C341.057,235.427 331.696,240.261 322.27,240.261 C320.206,240.261 318.139,240.029 316.088,239.53 C313.259,238.84 310.565,237.665 307.731,236.998 C304.569,236.254 301.323,236.159 298.063,236.159 C297.505,236.159 296.947,236.161 296.389,236.164 C295.831,236.167 295.273,236.17 294.715,236.17 C291.909,236.17 289.109,236.1 286.359,235.606 C279.318,234.344 271.984,228.309 273.572,221.334 C269.889,222.953 265.828,223.954 261.825,223.954 C259.219,223.954 256.636,223.53 254.197,222.575 C251.137,221.378 248.411,219.21 246.518,216.527 C246.195,216.914 245.894,217.32 245.62,217.742 C245.815,218.758 246.141,219.792 245.99,220.74 C245.824,221.775 245.497,222.604 245.488,223.685 C245.478,224.985 245.696,226.234 246.113,227.465 C247.599,231.854 251.441,235.325 255.814,236.712 C257.784,237.337 259.817,237.617 261.857,237.617 C265.578,237.617 269.317,236.686 272.724,235.226 C273.001,235.107 273.279,235.052 273.545,235.052 C274.585,235.052 275.43,235.9 275.193,237.123 C274.176,242.372 278.912,246.523 283.318,248.324 C286.581,249.657 290.143,249.864 293.69,249.864 C294.489,249.864 295.288,249.854 296.082,249.843 C296.877,249.833 297.667,249.822 298.449,249.822 C298.693,249.822 298.936,249.823 299.179,249.826 C303.912,249.872 308.214,250.601 312.692,252.091 C316.025,253.199 319.323,253.891 322.72,253.891 C324.105,253.891 325.508,253.776 326.935,253.527 C331.442,252.739 335.714,250.988 339.651,248.686 C343.635,246.356 346.879,243.271 350.542,240.522 C353.321,238.436 356.275,237.648 359.525,237.648 C360.286,237.648 361.063,237.692 361.858,237.772 C364.397,238.027 366.898,238.247 369.412,238.247 C370.87,238.247 372.333,238.173 373.809,237.989 C378.428,237.411 382.986,235.996 387.121,233.864 C390.375,232.187 395.178,229.67 396.606,226.03 C397.155,224.632 397.364,223.209 397.146,221.715 C397.042,221.008 396.742,220.352 396.62,219.659 C396.458,218.741 396.88,217.76 397.104,216.787 C396.675,216.06 396.182,215.371 395.639,214.736" id="Fill-51" fill="#B3C1C4" sketch:type="MSShapeGroup"></path>
            <path d="M395.326,207.148 C392.873,204.468 389.671,202.651 386.397,201.024 C385.916,203.168 385.219,205.267 384.349,207.252 C388.305,209.156 392.363,211.135 395.326,214.373 C396.592,215.756 397.614,217.432 398.24,219.212 C399.921,215.184 398.277,210.373 395.326,207.148" id="Fill-52" fill="#FFFFFF" sketch:type="MSShapeGroup"></path>
            <path d="M267.083,192.14 C274.609,187.885 283.773,187.872 292.37,188.779 C294.638,189.019 297.141,189.257 298.996,187.931 C300.234,187.045 300.941,185.617 301.659,184.275 C304.676,178.634 308.886,173.392 314.599,170.514 C320.313,167.637 327.709,167.556 332.763,171.478 L334.484,174.83 C343.202,168.682 356.752,171.096 362.812,179.875 C369.117,174.524 379.773,177.641 384.144,184.661 C385.611,187.018 386.488,189.626 386.883,192.337 C387.576,187.136 386.89,181.847 384.144,177.436 C379.773,170.416 369.117,167.299 362.812,172.651 C356.752,163.871 343.202,161.457 334.484,167.605 L332.763,164.253 C327.709,160.331 320.313,160.412 314.599,163.29 C308.886,166.167 304.676,171.409 301.659,177.05 C300.941,178.392 300.234,179.821 298.996,180.706 C297.141,182.032 294.638,181.794 292.37,181.554 C283.773,180.647 274.609,180.66 267.083,184.915 C260.195,188.809 255.416,197.285 257.407,204.724 C258.664,199.586 262.384,194.796 267.083,192.14" id="Fill-53" fill="#FFFFFF" sketch:type="MSShapeGroup"></path>
            <path d="M258.133,212.737 C257.034,210.329 256.745,207.748 257.083,205.202 C251.107,203.823 244.536,209.049 243.874,215.287 C243.693,216.993 243.884,218.682 244.37,220.293 C246.246,214.753 252.619,210.696 258.133,212.737" id="Fill-54" fill="#FFFFFF" sketch:type="MSShapeGroup"></path>
            <path d="M17.507,207.252 C16.638,205.267 15.94,203.168 15.459,201.024 C14.721,197.733 14.5,194.337 14.973,191.089 C15.368,188.378 16.245,185.77 17.712,183.413 C22.083,176.393 32.739,173.276 39.044,178.627 C45.104,169.848 58.654,167.434 67.373,173.582 L69.093,170.23 C74.147,166.308 81.543,166.389 87.257,169.266 C92.971,172.144 97.18,177.386 100.197,183.027 C100.915,184.369 101.622,185.797 102.861,186.683 C104.715,188.009 107.219,187.771 109.486,187.531 C118.083,186.624 127.247,186.637 134.773,190.892 C139.472,193.548 143.192,198.338 144.449,203.476 C144.589,204.047 144.696,204.624 144.773,205.202 C145.112,207.748 144.822,210.329 143.723,212.737 C149.238,210.696 155.61,214.753 157.487,220.293 C157.73,221.012 157.902,221.754 157.982,222.512 C158.683,229.118 153.845,235.497 147.659,237.918 C141.473,240.339 134.366,239.349 128.284,236.677 C129.872,243.652 122.539,249.687 115.497,250.95 C112.2,251.541 108.832,251.524 105.468,251.507 C101.646,251.488 97.829,251.469 94.126,252.341 C91.291,253.008 88.597,254.183 85.768,254.872 C74.358,257.652 62.402,252.143 53.484,244.503 C51.361,242.684 49.257,240.687 46.6,239.818 C43.486,238.8 40.114,239.486 36.852,239.795 C26.998,240.73 16.836,237.981 8.797,232.204 C6.687,230.687 4.654,228.884 3.637,226.492 C2.652,224.178 2.776,221.601 3.616,219.212 C4.242,217.432 5.264,215.756 6.53,214.373 C9.494,211.135 13.552,209.156 17.507,207.252" id="Fill-55" fill="#E7E7E4" sketch:type="MSShapeGroup"></path>
            <path d="M6.217,214.736 C5.463,215.618 4.805,216.605 4.28,217.652 C4.481,218.406 4.664,219.153 4.48,219.882 C4.307,220.574 4.078,221.233 3.993,221.946 C3.824,223.362 4.05,224.711 4.569,226.03 C5.335,227.985 7.319,229.561 8.963,230.753 C11.044,232.261 13.294,233.554 15.626,234.633 C20.225,236.761 25.284,237.992 30.343,238.243 C30.765,238.264 31.186,238.274 31.605,238.274 C35.088,238.274 38.492,237.628 41.974,237.602 L42.081,237.602 C46.591,237.602 49.823,239.724 53.14,242.58 C59.962,248.455 68.291,253.421 77.501,253.887 C77.848,253.905 78.19,253.913 78.53,253.913 C83.183,253.913 87.232,252.334 91.702,251.064 C95.693,249.929 99.811,249.827 103.927,249.827 C104.531,249.827 105.136,249.829 105.739,249.831 C106.03,249.832 106.322,249.832 106.615,249.832 C110.973,249.832 115.444,249.694 119.372,247.605 C123.187,245.576 126.888,241.801 125.982,237.123 C125.746,235.905 126.587,235.052 127.63,235.052 C127.895,235.052 128.173,235.107 128.45,235.226 C131.857,236.686 135.597,237.617 139.319,237.617 C141.357,237.617 143.391,237.337 145.36,236.712 C149.733,235.324 153.575,231.855 155.061,227.465 C155.478,226.236 155.696,224.982 155.686,223.685 C155.677,222.61 155.348,221.765 155.184,220.74 C154.991,219.526 155.562,218.212 155.67,216.941 C155.562,216.801 155.452,216.663 155.339,216.527 C153.446,219.21 150.719,221.378 147.659,222.575 C145.22,223.53 142.638,223.954 140.032,223.954 C136.028,223.954 131.968,222.953 128.284,221.334 C129.872,228.309 122.538,234.344 115.497,235.606 C112.747,236.1 109.947,236.17 107.141,236.17 C106.584,236.17 106.025,236.167 105.467,236.164 C104.909,236.161 104.351,236.159 103.793,236.159 C100.533,236.159 97.288,236.254 94.126,236.998 C91.291,237.665 88.597,238.84 85.768,239.53 C83.718,240.029 81.651,240.261 79.586,240.261 C70.16,240.261 60.799,235.427 53.484,229.16 C51.361,227.341 49.257,225.344 46.6,224.475 C45.376,224.075 44.112,223.938 42.831,223.938 C40.852,223.938 38.832,224.265 36.853,224.452 C35.587,224.572 34.318,224.632 33.047,224.632 C24.424,224.632 15.804,221.896 8.797,216.861 C7.897,216.214 7.016,215.51 6.217,214.736" id="Fill-56" fill="#B3C1C4" sketch:type="MSShapeGroup"></path>
            <path d="M6.53,207.148 C8.983,204.468 12.186,202.651 15.459,201.024 C15.94,203.168 16.638,205.267 17.507,207.252 C13.552,209.156 9.494,211.135 6.53,214.373 C5.264,215.756 4.242,217.432 3.616,219.212 C1.935,215.184 3.58,210.373 6.53,207.148" id="Fill-57" fill="#FFFFFF" sketch:type="MSShapeGroup"></path>
            <path d="M134.773,192.14 C127.247,187.885 118.083,187.872 109.486,188.779 C107.219,189.019 104.715,189.257 102.861,187.931 C101.622,187.045 100.915,185.617 100.197,184.275 C97.18,178.634 92.971,173.392 87.257,170.514 C81.543,167.637 74.147,167.556 69.093,171.478 L67.373,174.83 C58.654,168.682 45.104,171.096 39.044,179.875 C32.739,174.524 22.083,177.641 17.712,184.661 C16.245,187.018 15.368,189.626 14.973,192.337 C14.281,187.136 14.966,181.847 17.712,177.436 C22.083,170.416 32.739,167.299 39.044,172.651 C45.104,163.871 58.654,161.457 67.373,167.605 L69.093,164.253 C74.147,160.331 81.543,160.412 87.257,163.29 C92.971,166.167 97.18,171.409 100.197,177.05 C100.915,178.392 101.622,179.821 102.861,180.706 C104.715,182.032 107.219,181.794 109.486,181.554 C118.083,180.647 127.247,180.66 134.773,184.915 C141.661,188.809 146.441,197.285 144.449,204.724 C143.192,199.586 139.472,194.796 134.773,192.14" id="Fill-58" fill="#FFFFFF" sketch:type="MSShapeGroup"></path>
            <path d="M143.723,212.737 C144.822,210.329 145.112,207.748 144.773,205.202 C150.749,203.823 157.321,209.049 157.982,215.287 C158.163,216.993 157.972,218.682 157.487,220.293 C155.61,214.753 149.238,210.696 143.723,212.737" id="Fill-59" fill="#FFFFFF" sketch:type="MSShapeGroup"></path>
            <path d="M4.569,226.03 C4.05,224.711 3.824,223.362 3.993,221.946 C4.078,221.233 4.307,220.574 4.48,219.882 C4.81,218.57 3.955,217.202 3.941,215.834 C3.868,209.085 10.333,205.125 15.625,202.475 C16.314,202.131 16.547,201.275 16.398,200.578 C15.88,198.157 15.626,195.715 15.76,193.239 C15.822,192.099 15.947,191.07 15.84,189.932 C15.742,188.876 15.703,187.815 15.729,186.755 C15.829,182.691 17.012,178.364 19.795,175.294 C23.964,170.695 31.948,168.329 37.173,172.591 C38.062,173.316 39.142,173.196 39.813,172.251 C45.546,164.162 57.759,162.259 65.842,167.808 C66.563,168.302 67.749,167.97 68.141,167.205 C68.503,166.5 68.865,165.795 69.227,165.09 C69.4,164.752 69.544,164.368 69.758,164.055 C69.914,163.827 69.938,163.925 69.663,164.155 C70.031,163.847 70.512,163.584 70.928,163.349 C73.895,161.674 77.52,161.305 80.841,161.895 C87.855,163.143 93.153,168.462 96.737,174.328 C98.474,177.171 99.645,180.639 103.109,181.766 C106.467,182.858 110.461,181.749 113.899,181.585 C121.037,181.243 128.88,181.881 134.885,186.16 C137.826,188.256 140.231,191.299 141.518,194.678 C142.168,196.382 142.547,198.18 142.54,200.007 C142.537,200.885 142.434,201.714 142.26,202.572 C142.039,203.666 142.304,204.544 142.47,205.649 C142.612,206.588 143.737,206.985 144.537,206.822 C148.93,205.929 153.41,209.079 155.03,213.078 C155.479,214.187 155.689,215.368 155.687,216.562 C155.684,217.949 154.971,219.406 155.184,220.74 C155.348,221.765 155.677,222.61 155.686,223.685 C155.696,224.982 155.478,226.236 155.061,227.465 C153.575,231.855 149.733,235.324 145.36,236.712 C139.795,238.479 133.723,237.485 128.45,235.226 C127.086,234.641 125.686,235.595 125.982,237.123 C126.888,241.801 123.187,245.576 119.372,247.605 C115.18,249.834 110.37,249.842 105.739,249.831 C101.023,249.82 96.279,249.762 91.702,251.064 C86.906,252.427 82.595,254.145 77.501,253.887 C68.291,253.421 59.962,248.455 53.14,242.58 C49.796,239.701 46.541,237.568 41.974,237.602 C38.073,237.631 34.269,238.438 30.343,238.243 C25.284,237.992 20.225,236.761 15.626,234.633 C13.294,233.554 11.044,232.261 8.963,230.753 C7.319,229.561 5.335,227.985 4.569,226.03 C3.788,224.039 0.537,224.906 1.328,226.923 C2.915,230.97 6.953,233.689 10.565,235.784 C14.831,238.259 19.557,240.015 24.408,240.906 C28.985,241.747 33.527,241.782 38.14,241.261 C39.941,241.058 41.785,240.83 43.597,241.028 C46.37,241.332 48.509,243.015 50.55,244.773 C57.9,251.1 66.512,256.29 76.371,257.168 C81.759,257.648 86.475,256.197 91.538,254.621 C96.705,253.012 101.953,253.226 107.299,253.19 C112.77,253.153 118.241,252.593 122.871,249.415 C127.273,246.395 130.283,241.706 129.222,236.23 C128.4,236.862 127.577,237.495 126.754,238.127 C135.919,242.055 147.659,242.576 154.77,234.428 C157.835,230.916 159.664,226.211 158.843,221.525 C158.43,219.164 159.257,216.826 158.861,214.386 C158.522,212.288 157.577,210.322 156.284,208.649 C153.302,204.792 148.496,202.594 143.644,203.582 C144.333,203.973 145.022,204.364 145.711,204.755 C145.456,203.058 145.923,201.495 145.902,199.774 C145.881,198.061 145.588,196.322 145.072,194.69 C144.054,191.469 142.229,188.513 139.892,186.082 C134.499,180.472 126.575,178.464 119.024,178.183 C114.864,178.028 110.808,178.663 106.67,178.801 C104.694,178.868 103.099,178.462 101.964,176.739 C100.905,175.131 100.116,173.346 99.068,171.723 C95.073,165.535 89.209,160.016 81.734,158.655 C77.813,157.941 73.742,158.269 70.116,159.991 C68.738,160.645 67.395,161.387 66.66,162.741 C66.166,163.652 65.713,164.587 65.24,165.509 C66.006,165.308 66.772,165.107 67.539,164.906 C57.85,158.254 43.644,161.057 36.911,170.554 C37.79,170.441 38.67,170.328 39.55,170.214 C33.129,164.977 23.685,166.711 18.024,172.287 C14.683,175.579 12.985,180.159 12.497,184.754 C12.206,187.493 12.595,190.203 12.416,192.93 C12.228,195.798 12.557,198.668 13.157,201.471 C13.414,200.839 13.672,200.206 13.929,199.573 C7.728,202.678 1.426,207.122 0.647,214.598 C0.57,215.339 0.562,216.077 0.639,216.818 C0.717,217.577 1.133,218.463 1.134,219.191 C1.136,219.869 0.78,220.77 0.688,221.491 C0.455,223.335 0.646,225.189 1.328,226.923 C2.11,228.913 5.361,228.047 4.569,226.03" id="Fill-60" fill="#1B1A19" sketch:type="MSShapeGroup"></path>
            <path d="M195.537,21.849 C195.537,26.338 188.355,29.977 179.497,29.977 C170.638,29.977 163.457,26.338 163.457,21.849 C163.457,17.36 170.638,13.721 179.497,13.721 C188.355,13.721 195.537,17.36 195.537,21.849" id="Fill-61" fill="#FFFFFF" sketch:type="MSShapeGroup"></path>
            <path d="M179.497,31.49 C169.654,31.49 161.944,27.255 161.944,21.849 C161.944,16.443 169.654,12.208 179.497,12.208 C189.339,12.208 197.049,16.443 197.049,21.849 C197.049,27.255 189.339,31.49 179.497,31.49 L179.497,31.49 Z M179.497,15.233 C175.445,15.233 171.66,16.021 168.838,17.451 C166.379,18.697 164.969,20.3 164.969,21.849 C164.969,24.978 170.935,28.465 179.497,28.465 C183.548,28.465 187.333,27.678 190.155,26.247 C192.614,25.001 194.024,23.398 194.024,21.849 C194.024,18.72 188.058,15.233 179.497,15.233 L179.497,15.233 Z" id="Fill-62" fill="#1B1A19" sketch:type="MSShapeGroup"></path>
            <path d="M238.4,21.849 C238.4,26.338 231.218,29.977 222.36,29.977 C213.501,29.977 206.32,26.338 206.32,21.849 C206.32,17.36 213.501,13.721 222.36,13.721 C231.218,13.721 238.4,17.36 238.4,21.849" id="Fill-63" fill="#FFFFFF" sketch:type="MSShapeGroup"></path>
            <path d="M222.36,31.49 C212.517,31.49 204.807,27.255 204.807,21.849 C204.807,16.443 212.517,12.208 222.36,12.208 C232.202,12.208 239.912,16.443 239.912,21.849 C239.912,27.255 232.202,31.49 222.36,31.49 L222.36,31.49 Z M222.36,15.233 C218.308,15.233 214.523,16.021 211.701,17.451 C209.242,18.697 207.832,20.3 207.832,21.849 C207.832,24.978 213.798,28.465 222.36,28.465 C226.411,28.465 230.196,27.678 233.018,26.247 C235.477,25.001 236.887,23.398 236.887,21.849 C236.887,18.72 230.921,15.233 222.36,15.233 L222.36,15.233 Z" id="Fill-64" fill="#1B1A19" sketch:type="MSShapeGroup"></path>
            <path d="M207.105,21.226 C207.105,21.226 221.029,12.3 238.4,21.226 C238.4,21.226 233.586,13.803 224.32,13.783 C214.126,13.761 206.847,17.711 207.105,21.226" id="Fill-65" fill="#F0A67F" sketch:type="MSShapeGroup"></path>
            <path d="M238.399,22.738 C238.164,22.738 237.928,22.684 237.709,22.571 C230.859,19.051 223.777,17.964 216.66,19.337 C211.318,20.368 207.952,22.479 207.919,22.501 C207.47,22.786 206.903,22.815 206.428,22.576 C205.952,22.337 205.636,21.867 205.597,21.337 C205.531,20.437 205.746,19.05 207.144,17.548 C210.132,14.339 216.836,12.27 224.239,12.27 L224.323,12.271 C234.295,12.292 239.454,20.072 239.668,20.403 C240.041,20.978 239.981,21.732 239.521,22.24 C239.227,22.565 238.817,22.738 238.399,22.738 L238.399,22.738 Z M222.522,15.717 C225.057,15.717 227.812,16.002 230.734,16.722 C228.958,15.891 226.817,15.301 224.316,15.295 C221.469,15.294 218.15,15.679 215.255,16.507 C217.382,16.04 219.827,15.717 222.522,15.717 L222.522,15.717 Z" id="Fill-66" fill="#1B1A19" sketch:type="MSShapeGroup"></path>
            <path d="M163.974,21.226 C163.974,21.226 177.897,12.3 195.268,21.226 C195.268,21.226 190.455,13.803 181.188,13.783 C170.994,13.761 163.715,17.711 163.974,21.226" id="Fill-67" fill="#F0A67F" sketch:type="MSShapeGroup"></path>
            <path d="M195.268,22.738 C195.033,22.738 194.796,22.684 194.577,22.571 C187.727,19.051 180.645,17.964 173.528,19.337 C168.186,20.368 164.821,22.479 164.788,22.501 C164.339,22.786 163.772,22.815 163.296,22.576 C162.821,22.337 162.505,21.867 162.466,21.337 C162.399,20.437 162.614,19.05 164.012,17.548 C167,14.339 173.704,12.27 181.107,12.27 L181.191,12.271 C191.163,12.292 196.322,20.072 196.537,20.403 C196.91,20.978 196.849,21.732 196.39,22.24 C196.096,22.565 195.685,22.738 195.268,22.738 L195.268,22.738 Z M179.39,15.717 C181.925,15.717 184.68,16.002 187.603,16.722 C185.826,15.891 183.685,15.301 181.185,15.295 C178.342,15.299 175.019,15.679 172.123,16.508 C174.25,16.04 176.695,15.717 179.39,15.717 L179.39,15.717 Z" id="Fill-68" fill="#1B1A19" sketch:type="MSShapeGroup"></path>
            <path d="M185.439,23.361 C185.439,26.576 182.832,29.182 179.618,29.182 C176.403,29.182 173.797,26.576 173.797,23.361 C173.797,20.146 176.403,17.54 179.618,17.54 C182.832,17.54 185.439,20.146 185.439,23.361" id="Fill-69" fill="#1B1A19" sketch:type="MSShapeGroup"></path>
            <path d="M228.573,23.361 C228.573,26.576 225.967,29.182 222.753,29.182 C219.538,29.182 216.932,26.576 216.932,23.361 C216.932,20.146 219.538,17.54 222.753,17.54 C225.967,17.54 228.573,20.146 228.573,23.361" id="Fill-70" fill="#1B1A19" sketch:type="MSShapeGroup"></path>
            <path d="M399.846,226.923 C400.528,225.189 400.719,223.335 400.486,221.491 C400.399,220.805 399.99,219.858 400.024,219.201 C400.058,218.535 400.423,217.735 400.506,217.041 C400.603,216.223 400.612,215.418 400.527,214.598 C399.748,207.123 393.446,202.678 387.245,199.573 C387.502,200.206 387.76,200.839 388.017,201.471 C388.617,198.67 388.95,195.796 388.758,192.93 C388.575,190.201 388.966,187.496 388.677,184.754 C388.195,180.161 386.488,175.576 383.15,172.287 C377.489,166.711 368.045,164.977 361.624,170.214 C362.504,170.328 363.384,170.441 364.263,170.554 C357.53,161.057 343.324,158.255 333.635,164.906 C334.402,165.107 335.168,165.308 335.935,165.509 C334.918,163.528 334.336,161.899 332.373,160.699 C329.42,158.895 325.848,158.139 322.411,158.304 C314.804,158.668 308.455,163.192 303.958,169.091 C302.765,170.657 301.689,172.303 300.722,174.018 C299.805,175.645 299.068,177.813 297.172,178.525 C295.511,179.149 293.519,178.739 291.809,178.568 C289.733,178.361 287.651,178.21 285.566,178.163 C277.903,177.988 269.638,179.208 263.468,184.105 C260.425,186.521 258.029,189.726 256.59,193.336 C255.859,195.17 255.418,197.1 255.3,199.073 C255.184,201.013 255.749,202.854 255.463,204.755 C256.152,204.364 256.841,203.973 257.53,203.582 C253.32,202.725 249.107,204.251 246.093,207.26 C244.539,208.812 243.341,210.735 242.679,212.831 C242.364,213.829 242.2,214.882 242.143,215.926 C242.062,217.422 242.576,218.815 242.579,220.266 C242.581,220.986 242.267,221.781 242.194,222.512 C242.067,223.786 242.15,225.061 242.365,226.321 C242.774,228.716 243.824,231.027 245.257,232.983 C247.953,236.661 251.846,239.273 256.289,240.332 C262.421,241.793 268.717,240.572 274.42,238.127 C273.598,237.495 272.775,236.862 271.952,236.23 C271.024,241.022 273.208,245.381 276.916,248.374 C280.597,251.345 284.931,252.667 289.593,253.033 C291.798,253.206 294.02,253.187 296.242,253.167 C299.54,253.138 302.837,253.109 306.081,253.709 C311.145,254.645 315.698,256.989 320.924,257.249 C330.786,257.739 340.254,253.109 347.813,247.129 C349.752,245.595 351.507,243.778 353.611,242.465 C355.606,241.22 357.749,240.878 360.059,240.99 C364.414,241.2 368.587,241.885 372.969,241.442 C378.497,240.882 383.875,239.314 388.818,236.766 C393.015,234.602 398.037,231.536 399.846,226.923 C400.636,224.909 397.388,224.036 396.606,226.03 C395.178,229.67 390.375,232.187 387.121,233.864 C382.986,235.996 378.428,237.411 373.809,237.989 C369.785,238.491 365.868,238.174 361.858,237.772 C357.669,237.351 353.972,237.948 350.542,240.522 C346.879,243.271 343.635,246.356 339.651,248.686 C335.714,250.988 331.442,252.739 326.935,253.527 C322.01,254.387 317.385,253.652 312.692,252.091 C308.214,250.601 303.912,249.872 299.179,249.826 C298.16,249.816 297.125,249.83 296.082,249.843 C291.765,249.901 287.316,249.958 283.318,248.324 C278.912,246.523 274.176,242.372 275.193,237.123 C275.49,235.587 274.083,234.643 272.724,235.226 C267.45,237.486 261.38,238.478 255.814,236.712 C251.441,235.325 247.599,231.854 246.113,227.465 C245.696,226.234 245.478,224.985 245.488,223.685 C245.497,222.604 245.824,221.775 245.99,220.74 C246.2,219.421 245.487,217.935 245.487,216.562 C245.488,215.365 245.698,214.19 246.144,213.078 C247.749,209.074 252.256,205.931 256.637,206.822 C257.443,206.986 258.561,206.594 258.704,205.649 C258.836,204.772 259.137,203.914 259.027,203.029 C258.929,202.24 258.696,201.512 258.652,200.707 C258.565,199.121 258.771,197.565 259.205,196.04 C260.107,192.874 261.978,190.019 264.357,187.764 C269.654,182.743 277.393,181.478 284.425,181.508 C288.133,181.523 291.884,182.327 295.573,182.164 C299.386,181.995 301.388,179.824 303.11,176.65 C306.373,170.635 311.097,164.676 317.862,162.513 C321.4,161.382 325.368,161.257 328.851,162.669 C329.706,163.016 330.823,163.513 331.512,164.155 C331.015,163.691 331.585,164.384 331.738,164.682 C332.169,165.523 332.601,166.364 333.033,167.205 C333.426,167.972 334.612,168.302 335.332,167.808 C343.414,162.259 355.628,164.163 361.362,172.251 C362.032,173.196 363.112,173.316 364.001,172.591 C369.226,168.329 377.21,170.695 381.379,175.294 C384.091,178.286 385.299,182.502 385.438,186.468 C385.514,188.648 385.252,190.759 385.397,192.93 C385.569,195.506 385.316,198.058 384.777,200.578 C384.628,201.27 384.865,202.133 385.549,202.475 C390.841,205.125 397.306,209.085 397.234,215.834 C397.22,217.109 396.405,218.439 396.62,219.659 C396.742,220.352 397.042,221.008 397.146,221.715 C397.364,223.209 397.155,224.632 396.606,226.03 C395.814,228.043 399.063,228.917 399.846,226.923" id="Fill-71" fill="#1B1A19" sketch:type="MSShapeGroup"></path>
            <path d="M204.324,86.823 C175.49,86.823 147.238,99.569 128.381,122.221 C115.025,138.266 106.704,157.812 104.18,178.507 C104.817,178.725 105.519,178.808 106.282,178.808 C106.409,178.808 106.539,178.806 106.67,178.801 C107.322,178.779 107.973,178.745 108.623,178.704 C109.901,155.674 119.479,134.202 135.917,117.763 C153.613,100.067 177.141,90.321 202.167,90.321 C227.193,90.321 250.721,100.067 268.417,117.763 C284.887,134.233 294.47,155.753 295.718,178.833 C296.22,178.792 296.709,178.699 297.172,178.525 C298.151,178.157 298.822,177.401 299.367,176.532 C295.718,157.971 289.385,139.53 278.393,123.992 C267.083,108.003 251.074,96.661 232.34,90.967 C223.143,88.172 213.701,86.823 204.324,86.823" id="Fill-72" fill="#00854F" sketch:type="MSShapeGroup"></path>
            <path d="M202.167,90.321 C177.141,90.321 153.613,100.067 135.917,117.763 C119.479,134.202 109.901,155.674 108.623,178.704 C108.703,178.699 108.783,178.693 108.863,178.688 C113.108,143.394 136.439,110.52 170.065,97.72 C180.82,93.626 192.322,91.579 203.776,91.579 C230.072,91.579 256.138,102.356 272.517,123.888 C284.668,139.861 291.308,159.323 295.039,178.859 L295.056,178.859 C295.279,178.859 295.5,178.851 295.718,178.833 C294.47,155.753 284.887,134.233 268.417,117.763 C250.721,100.067 227.193,90.321 202.167,90.321" id="Fill-73" fill="#03140C" sketch:type="MSShapeGroup"></path>
            <path d="M104.18,178.507 C104.173,178.568 104.166,178.629 104.158,178.689 C103.978,180.186 105.06,180.929 106.234,180.929 C107.413,180.929 108.684,180.179 108.863,178.689 C108.783,178.693 108.703,178.699 108.623,178.704 C107.973,178.745 107.322,178.779 106.67,178.801 C106.539,178.806 106.409,178.808 106.282,178.808 C105.519,178.808 104.817,178.725 104.18,178.507" id="Fill-74" fill="#03140C" sketch:type="MSShapeGroup"></path>
            <path d="M299.367,176.532 C298.822,177.401 298.151,178.157 297.172,178.525 C296.709,178.699 296.22,178.792 295.718,178.833 C295.5,178.851 295.279,178.859 295.056,178.859 L295.039,178.859 C295.079,179.072 295.12,179.287 295.16,179.5 C295.383,180.685 296.237,181.198 297.149,181.198 C298.525,181.198 300.032,180.032 299.697,178.25 C299.59,177.677 299.479,177.104 299.367,176.532" id="Fill-75" fill="#03140C" sketch:type="MSShapeGroup"></path>
        </g>
    </g>
</svg>