<?xml version="1.0" encoding="UTF-8" standalone="no"?>
<svg width="400px" height="277px" viewBox="0 0 400 277" version="1.1" xmlns="http://www.w3.org/2000/svg" xmlns:xlink="http://www.w3.org/1999/xlink" xmlns:sketch="http://www.bohemiancoding.com/sketch/ns">
    <!-- Generator: Sketch 3.3.2 (12043) - http://www.bohemiancoding.com/sketch -->
    <title>Imported Layers</title>
    <desc>Created with Sketch.</desc>
    <defs></defs>
    <g id="Page-1" stroke="none" stroke-width="1" fill="none" fill-rule="evenodd" sketch:type="MSPage">
        <g id="Imported-Layers" sketch:type="MSLayerGroup" transform="translate(-1.000000, 0.000000)">
            <path d="M66.973,36.37 C52.982,26.478 38.99,16.585 24.999,6.693 C36.493,20.773 47.987,34.854 59.48,48.934 L66.973,36.37" id="Fill-1" fill="#A6A0C3" sketch:type="MSShapeGroup"></path>
            <path d="M67.58,35.332 C53.588,25.44 39.597,15.548 25.606,5.655 C24.409,4.809 23.352,6.566 24.149,7.543 C35.643,21.623 47.137,35.703 58.631,49.784 C59.132,50.398 60.155,50.15 60.518,49.54 C63.016,45.353 65.513,41.164 68.011,36.977 C68.805,35.645 66.728,34.435 65.935,35.763 C63.438,39.951 60.94,44.139 58.443,48.327 C59.072,48.246 59.701,48.165 60.33,48.084 C48.836,34.004 37.343,19.923 25.849,5.843 C25.364,6.472 24.878,7.101 24.393,7.731 C38.384,17.623 52.375,27.515 66.367,37.408 C67.632,38.303 68.834,36.219 67.58,35.332" id="Fill-2" fill="#1B1A19" sketch:type="MSShapeGroup"></path>
            <path d="M31.481,12.742 C32.419,13.892 33.357,15.041 34.296,16.191 C44.409,23.35 51.04,28.198 61.052,35.29 C61.047,34.74 61.042,34.19 61.037,33.64 C51.185,26.674 41.333,19.708 31.481,12.742" id="Fill-3" fill="#D5D3E1" sketch:type="MSShapeGroup"></path>
            <path d="M239.533,155.877 C239.533,155.877 252.988,188.675 260.707,207.266 C268.427,225.858 296.143,234.878 308.553,229.726 C308.553,229.726 310.876,251.247 316.516,248.905 C322.157,246.563 330.371,215.376 321.26,212.546 C312.149,209.716 281.916,233.413 274.852,168.939 L239.533,155.877" id="Fill-4" fill="#FFFFFF" sketch:type="MSShapeGroup"></path>
            <path d="M268.571,197.222 C268.66,197.241 268.749,197.261 268.839,197.279 L263.236,183.81 L250.527,182.622 C250.527,182.622 253.4,190.962 262.75,195.31 C265.726,201.359 273.573,217.752 273.573,222.374 C273.573,222.374 276.487,215.753 268.571,197.222" id="Fill-5" fill="#A0A3A2" sketch:type="MSShapeGroup"></path>
            <path d="M316.706,248.144 C324.662,238.823 326.772,225.847 322.714,214.338 C321.835,211.846 317.839,212.919 318.727,215.437 C322.274,225.495 320.807,236.99 313.782,245.22 C312.064,247.234 314.975,250.171 316.706,248.144" id="Fill-6" fill="#C2C2C0" sketch:type="MSShapeGroup"></path>
            <path d="M315.669,250.182 C315.103,250.182 314.544,250.024 314.015,249.71 C311.956,248.491 310.283,244.837 308.901,238.539 C308.256,235.599 307.843,232.825 307.632,231.23 C301.15,233.294 291.681,232.261 282.449,228.415 C271.575,223.884 263.281,216.33 259.693,207.688 C252.061,189.307 238.651,156.622 238.517,156.294 L237.567,153.978 L275.87,168.145 L275.944,168.82 C278.293,190.261 283.542,204.095 291.543,209.937 C298.545,215.05 306.504,213.435 312.898,212.137 C316.387,211.429 319.4,210.817 321.586,211.496 C323.616,212.127 326.1,214.26 326.404,220.839 C326.855,230.582 321.856,247.878 316.938,249.92 C316.516,250.095 316.091,250.182 315.669,250.182 L315.669,250.182 Z M309.488,228.148 L309.646,229.608 C310.314,235.787 312.394,246.196 315.135,247.82 C315.461,248.013 315.748,248.034 316.095,247.89 C319.209,246.597 324.701,231.587 324.209,220.94 C324.074,218.011 323.396,214.36 320.934,213.595 C319.286,213.082 316.528,213.643 313.335,214.291 C306.877,215.601 298.032,217.397 290.247,211.712 C281.693,205.466 276.322,191.732 273.835,169.735 L241.5,157.776 C244.707,165.588 255.276,191.321 261.722,206.845 C265.09,214.955 272.952,222.077 283.294,226.386 C292.523,230.231 302.273,231.144 308.132,228.711 L309.488,228.148 L309.488,228.148 Z" id="Fill-7" fill="#1B1A19" sketch:type="MSShapeGroup"></path>
            <path d="M112.335,161.709 C114.504,184.661 115.519,207.722 115.375,230.775 C115.31,241.262 114.538,252.883 107.052,260.228 C104.798,262.439 101.845,264.454 101.399,267.58 C100.998,270.388 102.993,273.165 105.594,274.298 C108.195,275.43 111.221,275.167 113.914,274.275 C120.558,272.075 125.551,266.331 128.458,259.965 C131.365,253.599 132.469,246.583 133.544,239.668 C136.829,218.525 140.115,197.382 143.401,176.239 L112.335,161.709" id="Fill-8" fill="#FFFFFF" sketch:type="MSShapeGroup"></path>
            <path d="M117.969,178.2 C117.968,180.637 117.968,183.074 117.967,185.511 C123.553,187.141 129.434,187.404 135.247,187.656 C136.95,187.729 138.72,187.792 140.287,187.121 C141.853,186.45 143.148,184.816 142.847,183.138 C142.631,181.936 141.651,180.983 140.54,180.474 C139.43,179.964 138.191,179.825 136.976,179.692 C130.428,178.977 123.88,178.261 117.331,177.545" id="Fill-9" fill="#A0A3A2" sketch:type="MSShapeGroup"></path>
            <path d="M104.012,272.238 C108.399,273.445 112.723,273.738 116.919,271.726 C120.968,269.784 123.501,266.248 125.759,262.496 C128.141,258.538 130.198,254.495 130.859,249.866 C131.224,247.307 131.292,244.65 131.387,242.068 C131.466,239.922 131.121,237.593 129.55,236.008 C126.927,233.361 122.022,231.992 118.39,232.554 C117.29,232.724 116.67,234.11 116.946,235.096 C117.276,236.274 118.377,236.712 119.489,236.54 C120.235,236.425 121.824,236.754 122.823,237.043 C124.028,237.393 125.339,237.862 126.33,238.658 C127.517,239.61 127.303,241.53 127.192,243.046 C127.042,245.103 127.11,247.201 126.802,249.242 C126.231,253.019 124.61,256.279 122.706,259.537 C121.036,262.394 119.24,265.54 116.354,267.319 C112.731,269.554 109.089,269.346 105.111,268.251 C102.542,267.544 101.446,271.532 104.012,272.238" id="Fill-10" fill="#A0A3A2" sketch:type="MSShapeGroup"></path>
            <path d="M111.134,161.709 C112.749,178.879 113.732,196.106 114.061,213.349 C114.215,221.378 114.454,229.478 113.982,237.499 C113.603,243.95 112.526,250.706 108.861,256.18 C105.709,260.888 97.442,264.889 101.025,271.653 C104.506,278.224 113.343,276.61 118.585,273.424 C131.798,265.396 133.403,248.351 135.545,234.567 L144.56,176.559 C144.637,176.067 144.52,175.441 144.008,175.202 C134.944,170.962 125.88,166.722 116.815,162.483 C115.524,161.879 114.233,161.275 112.942,160.671 C111.549,160.02 110.327,162.091 111.729,162.747 C120.793,166.986 129.857,171.226 138.921,175.465 C140.213,176.069 141.504,176.673 142.795,177.277 C142.611,176.825 142.427,176.372 142.243,175.92 C139.687,192.364 137.131,208.809 134.575,225.254 C133.36,233.072 132.399,240.986 130.744,248.726 C129.271,255.612 126.849,262.513 121.88,267.685 C119.763,269.889 117.236,271.74 114.369,272.842 C111.106,274.095 106.774,274.586 104.111,271.827 C103.007,270.683 102.32,269.118 102.626,267.514 C102.932,265.914 104.111,264.645 105.24,263.552 C107.384,261.476 109.521,259.59 111.157,257.057 C114.571,251.77 115.778,245.369 116.269,239.192 C116.85,231.884 116.626,224.484 116.527,217.161 C116.276,198.646 115.272,180.144 113.537,161.709 C113.394,160.182 110.989,160.167 111.134,161.709" id="Fill-11" fill="#1B1A19" sketch:type="MSShapeGroup"></path>
            <path d="M274.801,96.406 C218.837,100.893 138.355,85.158 138.355,85.158 C126.872,69.347 112.345,56.569 95.807,46.16 C90.471,42.802 84.807,39.663 79.982,35.676 L79.48,34.108 C78.008,28.453 74.574,23.328 69.902,19.817 C67.916,18.323 64.866,17.211 63.164,19.021 C62.177,20.07 62.132,21.666 62.145,23.106 L62.293,39.624 C62.316,42.183 60.863,44.526 58.561,45.644 C45.281,56.023 32.001,66.402 18.722,76.781 C12.475,81.663 5.94,86.93 3.19,94.365 C0.44,101.801 3.354,111.918 11.004,113.998 C19.452,116.295 26.825,108.249 34.964,105.026 C39.862,103.087 45.253,102.912 50.408,101.828 C60.468,99.712 69.527,93.765 75.911,85.726 L75.799,85.972 C85.154,97.858 93.011,109.731 92.835,124.855 C92.743,132.82 89.727,158.285 94.156,164.779 L93.8,164.531 C93.8,164.531 87.855,180.413 90.66,200.347 C93.465,220.281 118.03,235.97 131.336,234.098 C131.336,234.098 128.181,255.513 134.23,254.662 C140.278,253.811 156.057,225.685 147.949,220.658 C140.352,215.949 107.63,219.783 118.148,178.042 C131.185,180.889 148.957,179.897 169.616,178.904 C195.768,177.648 226.547,176.392 258.205,182.924 C259.921,183.278 261.596,183.57 263.236,183.81 C264.604,188.487 266.477,193.016 268.839,197.279 L268.747,197.229 C278.569,219.317 276.202,246.387 262.694,266.435 C261.838,267.705 260.901,269.085 261.014,270.613 C261.25,273.827 265.455,274.792 268.677,274.881 C273.902,275.027 279.787,274.918 283.422,271.161 C285.664,268.843 286.564,265.577 287.384,262.458 C296.088,229.319 304.793,196.181 313.498,163.043 C328.411,135.939 313.644,93.291 274.801,96.406" id="Fill-12" fill="#FFFFFF" sketch:type="MSShapeGroup"></path>
            <path d="M75.57,87.49 C84.135,93.077 88.484,103.078 90.682,112.711 C91.732,117.315 92.289,121.922 92.175,126.645 C92.056,131.558 91.542,136.454 91.235,141.357 C90.815,148.067 90.8,154.793 91.508,161.485 C91.676,163.075 94.652,162.766 95.621,162.507 C96.955,162.149 98.845,161.2 98.672,159.565 C98.033,153.525 98.02,147.48 98.373,141.422 C98.668,136.353 99.209,131.296 99.355,126.22 C99.644,116.211 97.588,105.839 92.855,96.96 C90.033,91.667 86.274,87.128 81.22,83.832 C79.813,82.915 77.408,83.592 76.128,84.435 C74.988,85.186 74.15,86.565 75.57,87.49" id="Fill-13" fill="#DCDDDA" sketch:type="MSShapeGroup"></path>
            <path d="M262.699,271.245 C266.047,272.786 269.604,273.887 273.33,273.738 C277.058,273.588 280.543,272.295 283.793,270.53 C286.132,269.26 284.047,265.688 281.706,266.96 C279.113,268.369 276.312,269.484 273.33,269.603 C270.349,269.723 267.476,268.914 264.785,267.675 C262.385,266.57 260.282,270.133 262.699,271.245" id="Fill-14" fill="#C2C2C0" sketch:type="MSShapeGroup"></path>
            <path d="M135.337,254.176 C144.742,246.551 149.166,234.139 148.232,222.236 C148.026,219.601 143.89,219.579 144.098,222.236 C144.957,233.185 141.068,244.236 132.414,251.253 C131.54,251.961 131.691,253.437 132.414,254.176 C133.262,255.043 134.475,254.875 135.337,254.176" id="Fill-15" fill="#C2C2C0" sketch:type="MSShapeGroup"></path>
            <path d="M122.374,178.45 C142.58,179.131 162.783,178.617 182.989,178.272 C202.407,177.94 221.897,177.844 241.279,179.272 C242.254,179.344 243.228,179.424 244.201,179.522 C244.632,179.565 245.063,179.611 245.493,179.661 C245.651,179.679 245.809,179.699 245.967,179.717 C246.965,179.832 245.834,179.708 245.486,179.648 C247.152,179.934 248.815,180.178 250.465,180.553 C254.46,181.462 258.344,182.791 262.19,184.187 C265.099,185.243 268.786,183.002 269.455,180.062 C270.213,176.734 268.444,173.928 265.33,172.797 C258.46,170.303 251.651,168.469 244.364,167.726 C235.374,166.81 226.255,166.618 217.226,166.417 C197.301,165.975 177.381,166.65 157.458,166.905 C145.763,167.055 134.065,167.032 122.374,166.638 C119.284,166.534 116.329,169.429 116.468,172.544 C116.616,175.833 119.063,178.338 122.374,178.45" id="Fill-16" fill="#DCDDDA" sketch:type="MSShapeGroup"></path>
            <path d="M274.801,95.204 C251.352,97.061 227.655,95.654 204.288,93.352 C185.834,91.534 167.443,89.013 149.165,85.888 C145.663,85.289 142.161,84.68 138.674,83.999 C138.914,84.183 139.153,84.367 139.393,84.552 C132.652,75.309 124.823,66.927 116.108,59.519 C111.78,55.84 107.252,52.395 102.573,49.175 C97.696,45.819 92.578,42.862 87.6,39.663 C86.346,38.857 85.106,38.03 83.892,37.164 C83.255,36.71 82.626,36.246 82.008,35.766 C81.41,35.302 81.257,35.348 80.982,34.86 C80.588,34.163 80.472,33.135 80.231,32.387 C79.826,31.131 79.323,29.902 78.746,28.716 C76.649,24.402 72.976,19.563 68.458,17.592 C66.602,16.782 64.262,16.452 62.61,17.896 C61.093,19.222 60.938,21.252 60.943,23.136 C60.95,25.366 60.983,27.595 61.003,29.824 C61.029,32.756 61.056,35.688 61.082,38.62 C61.092,39.692 61.101,40.718 60.682,41.739 C60.163,43.003 59.276,43.787 58.153,44.501 C56.805,45.358 55.571,46.467 54.31,47.452 C43.622,55.806 32.933,64.16 22.244,72.513 C14.234,78.774 3.5,85.715 1.353,96.461 C-0.222,104.342 3.471,114.288 12.33,115.478 C17.268,116.142 21.857,113.767 25.971,111.324 C28.242,109.977 30.465,108.544 32.814,107.333 C35.483,105.956 38.295,105.108 41.24,104.554 C47.009,103.471 52.695,102.935 58.171,100.662 C63.029,98.645 67.495,95.781 71.407,92.268 C73.349,90.523 75.127,88.611 76.761,86.576 C76.132,86.091 75.503,85.605 74.874,85.12 L74.761,85.366 C74.513,85.912 74.587,86.361 74.949,86.822 C83.532,97.747 91.627,109.91 91.636,124.329 C91.642,133.718 90.301,143.051 90.592,152.46 C90.72,156.592 90.756,161.793 93.119,165.386 C93.667,164.838 94.215,164.289 94.763,163.741 C94.644,163.659 94.525,163.576 94.407,163.494 C93.717,163.014 92.89,163.544 92.641,164.212 C91.373,167.619 90.605,171.267 89.986,174.837 C88.543,183.163 88.286,191.695 89.421,200.076 C91.245,213.551 101.743,224.683 113.381,230.876 C118.737,233.726 125.167,236.11 131.336,235.3 C130.95,234.793 130.563,234.286 130.177,233.779 C129.691,237.1 129.396,240.469 129.325,243.825 C129.275,246.217 129.328,248.655 129.797,251.01 C130.123,252.646 130.745,254.596 132.295,255.474 C135.545,257.315 139.039,252.921 140.746,250.763 C144.136,246.476 146.827,241.603 148.879,236.546 C150.506,232.536 152.385,227.273 151.012,222.924 C150.07,219.941 147.458,218.879 144.69,218.113 C138.176,216.312 131.36,215.423 125.695,211.427 C116.989,205.287 116.4,193.997 118.034,184.353 C118.376,182.339 118.814,180.344 119.307,178.362 C118.814,178.641 118.322,178.921 117.829,179.201 C124.591,180.658 131.553,181.036 138.454,181.105 C146.888,181.19 155.322,180.79 163.744,180.389 C184.135,179.418 204.546,178.439 224.947,179.762 C231.347,180.177 237.737,180.799 244.088,181.696 C250.403,182.588 256.615,184.026 262.916,184.969 C262.636,184.689 262.357,184.409 262.077,184.129 C263.496,188.908 265.405,193.514 267.801,197.886 C268.349,197.337 268.897,196.789 269.446,196.241 L269.353,196.192 C268.224,195.58 267.241,196.772 267.709,197.836 C276.822,218.534 275.167,243.551 263.51,262.918 C262.196,265.101 259.935,267.444 259.812,270.109 C259.716,272.184 260.987,273.884 262.784,274.798 C264.738,275.793 266.977,276.041 269.14,276.095 C271.752,276.161 274.389,276.127 276.965,275.644 C282.385,274.628 285.872,271.222 287.598,266.06 C289.716,259.726 291.094,253.065 292.79,246.607 C299.922,219.458 307.053,192.309 314.185,165.159 C314.741,163.045 315.839,161.187 316.679,159.173 C317.404,157.432 318.026,155.651 318.537,153.836 C319.559,150.205 320.152,146.443 320.345,142.677 C320.73,135.183 319.489,127.548 316.614,120.61 C313.788,113.792 309.4,107.65 303.534,103.124 C297.227,98.258 289.556,95.624 281.632,95.13 C279.355,94.989 277.075,95.031 274.801,95.204 C273.269,95.32 273.256,97.725 274.801,97.607 C282.803,96.998 290.9,98.267 297.935,102.268 C304.134,105.793 309.072,111.151 312.449,117.401 C319.229,129.953 319.906,145.944 314.154,159.01 C313.796,159.821 313.414,160.621 313.008,161.409 C312.382,162.622 312.059,163.792 311.71,165.119 C310.871,168.313 310.032,171.507 309.193,174.701 C307.489,181.189 305.784,187.677 304.08,194.165 C300.672,207.141 297.263,220.117 293.855,233.092 C292.15,239.58 290.446,246.068 288.742,252.556 C287.903,255.75 287.068,258.945 286.225,262.138 C285.558,264.664 284.888,267.317 283.307,269.451 C280.023,273.885 273.647,273.859 268.677,273.68 C266.789,273.611 264.184,273.394 262.821,271.897 C260.95,269.841 263.976,266.736 265.072,264.972 C276.25,246.974 278.971,223.975 272.533,203.814 C271.751,201.367 270.82,198.974 269.785,196.623 C269.237,197.171 268.688,197.719 268.14,198.267 L268.232,198.317 C269.293,198.89 270.461,197.739 269.877,196.672 C267.577,192.477 265.756,188.076 264.395,183.49 C264.286,183.124 263.961,182.711 263.555,182.651 C257.951,181.813 252.424,180.527 246.816,179.683 C241.303,178.853 235.761,178.214 230.206,177.749 C219.5,176.853 208.751,176.598 198.012,176.724 C179.388,176.943 160.808,178.584 142.186,178.706 C134.27,178.758 126.234,178.556 118.468,176.883 C117.845,176.749 117.154,177.063 116.989,177.723 C114.438,187.97 112.912,200.569 120.049,209.411 C124.568,215.009 131.574,217.427 138.335,219.053 C140.944,219.68 143.671,220.126 146.175,221.115 C146.941,221.417 147.977,221.994 148.46,222.974 C149.23,224.536 149.091,226.505 148.843,228.174 C148.082,233.296 145.762,238.251 143.228,242.714 C141.222,246.248 138.77,250.53 135.318,252.872 C134.173,253.65 133.354,253.768 132.692,252.347 C131.746,250.317 131.743,247.763 131.718,245.572 C131.69,243.006 131.849,240.438 132.095,237.885 C132.18,236.995 132.279,236.107 132.388,235.22 C132.462,234.627 132.432,234.845 132.495,234.418 C132.592,233.751 132.199,232.783 131.336,232.896 C126.178,233.574 120.871,231.87 116.275,229.653 C110.474,226.855 105.204,222.909 100.886,218.131 C96.57,213.357 93.186,207.579 92.009,201.195 C90.537,193.214 90.84,184.653 92.107,176.662 C92.736,172.693 93.552,168.631 94.959,164.851 C94.37,165.09 93.782,165.33 93.194,165.569 C93.312,165.652 93.431,165.734 93.55,165.817 C94.536,166.503 95.838,165.152 95.194,164.172 C93.099,160.988 93.123,156.302 93.002,152.644 C92.826,147.323 93.08,141.993 93.39,136.682 C93.63,132.574 94.042,128.447 94.04,124.329 C94.035,117.591 92.365,111.029 89.562,104.927 C86.259,97.733 81.517,91.32 76.649,85.122 C76.712,85.608 76.774,86.093 76.837,86.579 L76.949,86.333 C77.464,85.202 75.987,83.724 75.061,84.876 C69.836,91.385 62.949,96.562 55.027,99.299 C50.699,100.795 46.203,101.279 41.713,102.04 C37.41,102.769 33.506,104.123 29.718,106.284 C23.753,109.687 15.777,116.236 8.735,111.678 C2.997,107.964 2.216,99.395 4.787,93.603 C8.366,85.535 16.248,80.228 22.972,74.972 C31.151,68.581 39.329,62.189 47.508,55.797 C51.542,52.644 55.479,49.167 59.754,46.355 C62.187,44.755 63.489,42.259 63.492,39.359 C63.497,35.088 63.416,30.816 63.378,26.545 C63.365,25.112 63.294,23.663 63.353,22.229 C63.599,16.225 69.953,21.168 71.976,23.234 C74.995,26.32 77.046,30.068 78.258,34.193 C78.648,35.521 78.87,36.332 79.992,37.22 C81.747,38.61 83.576,39.9 85.447,41.128 C93.058,46.123 100.898,50.63 108.149,56.17 C115.175,61.537 121.756,67.506 127.724,74.032 C130.779,77.372 133.677,80.858 136.379,84.489 C137.099,85.456 137.484,86.191 138.606,86.427 C140.713,86.87 142.846,87.214 144.966,87.587 C154.759,89.315 164.589,90.841 174.44,92.201 C188.733,94.175 203.077,95.803 217.463,96.918 C232.922,98.117 248.46,98.773 263.963,98.224 C267.58,98.095 271.194,97.893 274.801,97.607 C276.333,97.486 276.346,95.082 274.801,95.204" id="Fill-17" fill="#1B1A19" sketch:type="MSShapeGroup"></path>
            <path d="M309.1,110.863 C317.102,105.217 327.686,103.398 337.114,106.05 C346.542,108.701 354.626,115.769 358.513,124.758 C361.826,132.42 362.121,141.007 362.14,149.354 C362.159,157.701 361.974,166.214 364.437,174.189 C366.901,182.165 372.581,189.679 380.624,191.912 C388.667,194.146 398.675,189.207 399.825,180.94 C395.06,189.752 390.124,198.779 382.485,205.261 C374.847,211.742 363.782,215.196 354.598,211.196 C345.212,207.109 340.361,196.735 337.512,186.903 C333.743,173.898 332.035,160.299 332.471,146.766 C332.639,141.572 333.115,136.309 332.036,131.225 C330.958,126.141 327.996,121.125 323.203,119.118 C320.235,117.875 316.858,117.887 313.893,116.638 C310.927,115.39 308.365,111.933 309.842,109.074 L309.1,110.863" id="Fill-18" fill="#8A3983" sketch:type="MSShapeGroup"></path>
            <path d="M327.505,105.952 C323.207,105.952 318.906,106.777 314.916,108.372 C314.953,108.932 315.103,109.491 315.341,110.029 C318.396,109.149 321.576,108.699 324.754,108.699 C327.72,108.699 330.684,109.091 333.543,109.895 C342.971,112.547 351.055,119.615 354.942,128.604 C358.254,136.266 358.55,144.853 358.569,153.2 C358.588,161.547 358.403,170.059 360.866,178.035 C363.329,186.011 369.01,193.524 377.053,195.758 C378.362,196.121 379.722,196.295 381.087,196.295 C385.142,196.295 389.243,194.766 392.174,192.145 C392.406,191.746 392.636,191.345 392.864,190.943 C390.215,192.609 387.009,193.548 383.833,193.548 C382.468,193.548 381.108,193.374 379.8,193.011 C371.757,190.777 366.076,183.264 363.613,175.288 C361.15,167.312 361.335,158.8 361.316,150.453 C361.297,142.106 361.001,133.519 357.689,125.857 C353.802,116.868 345.718,109.799 336.29,107.148 C333.433,106.345 330.469,105.952 327.505,105.952" id="Fill-19" fill="#B98CB3" sketch:type="MSShapeGroup"></path>
            <path d="M308.707,111.667 C308.67,111.693 308.632,111.719 308.594,111.744 C308.577,112.083 308.603,112.422 308.668,112.759 C308.874,112.647 309.081,112.538 309.288,112.431 C309.098,112.174 308.904,111.919 308.707,111.667" id="Fill-20" fill="#FFFFFF" sketch:type="MSShapeGroup"></path>
            <path d="M309.426,111.192 C309.184,111.347 308.945,111.505 308.707,111.667 C308.904,111.919 309.098,112.174 309.288,112.431 C309.407,112.37 309.524,112.31 309.643,112.25 C309.53,111.902 309.455,111.547 309.426,111.192" id="Fill-21" fill="#6E6967" sketch:type="MSShapeGroup"></path>
            <path d="M309.428,111.191 C309.427,111.192 309.427,111.191 309.426,111.192 C309.455,111.547 309.53,111.902 309.643,112.25 L309.645,112.25 C309.532,111.901 309.457,111.546 309.428,111.191" id="Fill-22" fill="#B98CB3" sketch:type="MSShapeGroup"></path>
            <path d="M314.777,107.674 C312.903,108.492 311.106,109.486 309.418,110.645 C309.409,110.827 309.412,111.009 309.428,111.191 C311.162,110.078 313.003,109.136 314.916,108.372 C314.906,108.214 314.904,108.056 314.912,107.898 C314.806,107.971 314.699,108.042 314.594,108.116 L314.777,107.674" id="Fill-23" fill="#5A2B67" sketch:type="MSShapeGroup"></path>
            <path d="M313.877,116.632 C313.882,116.634 313.887,116.636 313.893,116.638 C313.887,116.636 313.882,116.634 313.877,116.632 M313.86,116.625 C313.864,116.626 313.868,116.628 313.872,116.629 C313.868,116.628 313.864,116.626 313.86,116.625 M313.844,116.617 C313.847,116.619 313.851,116.621 313.855,116.622 C313.851,116.621 313.847,116.619 313.844,116.617 M313.825,116.609 C313.829,116.611 313.834,116.613 313.839,116.615 C313.834,116.613 313.829,116.611 313.825,116.609 M313.806,116.601 C313.812,116.604 313.817,116.606 313.823,116.608 C313.817,116.606 313.812,116.604 313.806,116.601 M313.79,116.594 C313.795,116.596 313.799,116.598 313.803,116.6 C313.799,116.598 313.795,116.596 313.79,116.594 M313.774,116.587 C313.778,116.589 313.781,116.59 313.785,116.592 C313.781,116.59 313.778,116.589 313.774,116.587 M313.757,116.579 C313.761,116.581 313.764,116.583 313.768,116.585 C313.765,116.583 313.76,116.581 313.757,116.579 M313.737,116.571 C313.742,116.573 313.748,116.575 313.753,116.578 C313.747,116.575 313.743,116.573 313.737,116.571 M313.72,116.563 C313.726,116.565 313.731,116.568 313.737,116.57 C313.731,116.568 313.726,116.565 313.72,116.563 M313.704,116.556 C313.708,116.558 313.712,116.559 313.716,116.561 C313.712,116.559 313.708,116.558 313.704,116.556 M313.688,116.548 C313.691,116.55 313.695,116.552 313.699,116.553 C313.695,116.552 313.691,116.55 313.688,116.548 M313.671,116.541 C313.675,116.542 313.679,116.544 313.683,116.546 C313.679,116.544 313.675,116.542 313.671,116.541 M313.65,116.531 C313.656,116.533 313.661,116.536 313.666,116.538 C313.661,116.536 313.656,116.534 313.65,116.531 M313.635,116.524 C313.639,116.526 313.645,116.528 313.649,116.53 C313.644,116.528 313.64,116.526 313.635,116.524 M313.618,116.516 C313.622,116.518 313.626,116.52 313.629,116.521 C313.626,116.519 313.622,116.518 313.618,116.516 M313.602,116.508 C313.606,116.51 313.609,116.512 313.613,116.513 C313.609,116.512 313.606,116.51 313.602,116.508 M313.586,116.501 C313.589,116.502 313.593,116.504 313.597,116.506 C313.593,116.504 313.589,116.502 313.586,116.501 M313.566,116.491 C313.571,116.493 313.576,116.496 313.581,116.498 C313.576,116.496 313.57,116.493 313.566,116.491 M313.55,116.484 C313.553,116.485 313.555,116.486 313.558,116.487 C313.555,116.486 313.553,116.485 313.55,116.484 M313.535,116.476 C313.537,116.477 313.539,116.478 313.542,116.479 C313.539,116.478 313.537,116.477 313.535,116.476 M313.52,116.469 L313.526,116.472 L313.52,116.469 M313.508,116.463 C313.509,116.463 313.509,116.464 313.51,116.464 C313.509,116.464 313.509,116.463 313.508,116.463 M313.467,116.443 L313.468,116.443 C313.468,116.443 313.468,116.443 313.467,116.443 M313.453,116.436 L313.454,116.436 L313.453,116.436" id="Fill-24" fill="#0D050D" sketch:type="MSShapeGroup"></path>
            <path d="M332.415,149.282 C332.254,161.982 333.976,174.704 337.512,186.903 C338.807,191.372 340.516,195.953 342.876,200.005 C340.516,195.953 338.807,191.372 337.512,186.903 C333.976,174.704 332.254,161.982 332.415,149.282" id="Fill-25" fill="#804977" sketch:type="MSShapeGroup"></path>
            <path d="M315.341,110.029 C313.379,110.594 311.469,111.337 309.645,112.25 C310.207,113.982 311.728,115.571 313.453,116.436 L313.454,116.436 C313.458,116.438 313.463,116.441 313.467,116.443 L313.468,116.443 C313.481,116.45 313.495,116.456 313.508,116.463 C313.509,116.463 313.509,116.464 313.51,116.464 C313.513,116.466 313.517,116.467 313.52,116.469 L313.526,116.472 C313.529,116.473 313.532,116.475 313.535,116.476 C313.537,116.477 313.539,116.478 313.542,116.479 C313.544,116.481 313.548,116.482 313.55,116.484 C313.553,116.485 313.555,116.486 313.558,116.487 C313.56,116.488 313.563,116.49 313.566,116.491 C313.57,116.493 313.576,116.496 313.581,116.498 C313.582,116.499 313.584,116.5 313.586,116.501 C313.589,116.502 313.593,116.504 313.597,116.506 C313.598,116.507 313.601,116.508 313.602,116.508 C313.606,116.51 313.609,116.512 313.613,116.513 C313.615,116.514 313.616,116.515 313.618,116.516 C313.622,116.518 313.626,116.519 313.629,116.521 C313.631,116.522 313.633,116.523 313.635,116.524 C313.64,116.526 313.644,116.528 313.649,116.53 L313.65,116.531 C313.656,116.534 313.661,116.536 313.666,116.538 C313.668,116.539 313.67,116.54 313.671,116.541 C313.675,116.542 313.679,116.544 313.683,116.546 C313.684,116.547 313.686,116.547 313.688,116.548 C313.691,116.55 313.695,116.552 313.699,116.553 C313.701,116.554 313.702,116.555 313.704,116.556 C313.708,116.558 313.712,116.559 313.716,116.561 C313.718,116.562 313.719,116.562 313.72,116.563 C313.726,116.565 313.731,116.568 313.737,116.57 L313.737,116.571 C313.743,116.573 313.747,116.575 313.753,116.578 C313.754,116.578 313.755,116.579 313.757,116.579 C313.76,116.581 313.765,116.583 313.768,116.585 C313.77,116.586 313.772,116.586 313.774,116.587 C313.778,116.589 313.781,116.59 313.785,116.592 C313.787,116.593 313.789,116.593 313.79,116.594 C313.795,116.596 313.799,116.598 313.803,116.6 C313.803,116.6 313.805,116.601 313.806,116.601 C313.812,116.604 313.817,116.606 313.823,116.608 C313.823,116.609 313.824,116.609 313.825,116.609 C313.829,116.611 313.834,116.613 313.839,116.615 C313.84,116.616 313.842,116.617 313.844,116.617 C313.847,116.619 313.851,116.621 313.855,116.622 C313.857,116.623 313.859,116.624 313.86,116.625 C313.864,116.626 313.868,116.628 313.872,116.629 C313.873,116.63 313.875,116.631 313.877,116.632 C313.882,116.634 313.887,116.636 313.893,116.638 C316.858,117.887 320.235,117.875 323.203,119.118 C327.996,121.125 330.958,126.141 332.036,131.225 C333.115,136.309 332.639,141.572 332.471,146.766 C332.444,147.604 332.426,148.443 332.415,149.282 C332.254,161.982 333.976,174.704 337.512,186.903 C338.807,191.372 340.516,195.953 342.876,200.005 C345.708,204.867 349.478,208.966 354.598,211.196 C357.297,212.371 360.159,212.903 363.047,212.903 C368.358,212.903 373.761,211.107 378.422,208.215 C375.229,209.451 371.865,210.155 368.54,210.155 C365.651,210.155 362.791,209.624 360.092,208.449 C350.706,204.362 345.855,193.988 343.006,184.156 C339.237,171.151 337.529,157.551 337.965,144.019 C338.133,138.825 338.608,133.562 337.53,128.478 C336.452,123.394 333.49,118.378 328.696,116.371 C325.729,115.128 322.352,115.14 319.387,113.891 C317.664,113.166 316.078,111.695 315.341,110.029" id="Fill-26" fill="#5A2B67" sketch:type="MSShapeGroup"></path>
            <path d="M314.916,108.372 C313.003,109.136 311.162,110.078 309.428,111.191 C309.457,111.546 309.532,111.901 309.645,112.25 C311.469,111.337 313.379,110.594 315.341,110.029 C315.103,109.491 314.953,108.932 314.916,108.372" id="Fill-27" fill="#6D396F" sketch:type="MSShapeGroup"></path>
            <path d="M79.857,35.202 C78.287,39.822 76.695,44.644 77.329,49.482 C77.963,54.32 81.55,59.146 86.419,59.473 C87.224,59.527 88.034,59.459 88.843,59.391 C89.938,59.299 91.029,59.208 92.101,59.418 C95.443,60.074 97.593,63.514 98.121,66.878 C98.649,70.242 97.973,73.663 97.826,77.065 C97.697,80.063 98.037,83.233 99.76,85.69 C101.483,88.148 104.917,89.593 107.614,88.279 C109.504,87.358 110.925,85.235 113.027,85.258 C115.695,85.287 116.88,88.569 117.343,91.195 C118.661,98.661 119.979,106.127 121.297,113.593 C122.611,111.331 125.784,110.381 128.125,111.55 C130.467,112.719 131.615,115.825 130.596,118.236 C138.702,110.839 141.618,98.83 139.659,88.034 C137.7,77.237 131.413,67.605 123.651,59.849 C115.888,52.093 106.657,45.997 97.496,39.958 C91.704,36.14 86.637,33.734 79.857,35.202" id="Fill-28" fill="#8A3983" sketch:type="MSShapeGroup"></path>
            <path d="M67.58,35.332 C53.588,25.44 39.597,15.548 25.606,5.655 C24.409,4.809 23.352,6.566 24.149,7.543 C35.643,21.623 47.137,35.703 58.631,49.784 C59.132,50.398 60.155,50.15 60.518,49.54 C63.016,45.353 65.513,41.164 68.011,36.977 C68.805,35.645 66.728,34.435 65.935,35.763 C63.438,39.951 60.94,44.139 58.443,48.327 C59.072,48.246 59.701,48.165 60.33,48.084 C48.836,34.004 37.343,19.923 25.849,5.843 C25.364,6.472 24.878,7.101 24.393,7.731 C38.384,17.623 52.375,27.515 66.367,37.408 C67.632,38.303 68.834,36.219 67.58,35.332" id="Fill-29" fill="#1B1A19" sketch:type="MSShapeGroup"></path>
            <path d="M62.032,36.695 C54.211,33.805 44.493,37.867 41.056,45.464 C42.772,44.935 44.575,44.4 46.338,44.746 C48.1,45.091 49.767,46.638 49.585,48.425 C49.466,49.597 48.606,50.603 48.526,51.779 C48.407,53.522 50.161,54.967 51.906,55.05 C53.651,55.133 55.289,54.198 56.633,53.081 C61.708,48.861 63.851,41.439 61.805,35.164 L62.032,36.695" id="Fill-30" fill="#8A3983" sketch:type="MSShapeGroup"></path>
            <path d="M61.934,35.581 C61.934,35.582 61.935,35.583 61.935,35.584 C61.935,35.583 61.934,35.582 61.934,35.581 M61.924,35.548 C61.925,35.551 61.926,35.554 61.927,35.557 C61.926,35.554 61.925,35.551 61.924,35.548 M61.915,35.518 C61.916,35.521 61.917,35.524 61.918,35.526 C61.917,35.524 61.916,35.521 61.915,35.518 M61.9,35.467 C61.901,35.471 61.903,35.476 61.904,35.481 C61.903,35.476 61.901,35.471 61.9,35.467 M61.889,35.432 C61.891,35.438 61.893,35.444 61.895,35.449 C61.893,35.444 61.891,35.438 61.889,35.432 M61.875,35.386 C61.879,35.397 61.882,35.407 61.885,35.417 C61.882,35.407 61.879,35.397 61.875,35.386 M61.865,35.353 C61.868,35.361 61.871,35.371 61.873,35.379 C61.871,35.37 61.868,35.362 61.865,35.353 M61.854,35.318 C61.857,35.326 61.859,35.334 61.862,35.342 C61.859,35.334 61.857,35.326 61.854,35.318 M61.83,35.241 C61.837,35.263 61.844,35.285 61.851,35.308 C61.844,35.285 61.837,35.263 61.83,35.241 M61.819,35.207 C61.821,35.215 61.824,35.223 61.827,35.232 C61.824,35.223 61.821,35.215 61.819,35.207 M61.805,35.164 C61.809,35.175 61.812,35.186 61.816,35.197 C61.812,35.186 61.809,35.175 61.805,35.164" id="Fill-31" fill="#6E6967" sketch:type="MSShapeGroup"></path>
            <path d="M56.689,35.76 C54.78,35.76 52.866,36.092 51.047,36.712 C52.866,36.092 54.78,35.76 56.689,35.76 C57.663,35.761 58.636,35.847 59.594,36.025 C58.636,35.847 57.663,35.761 56.689,35.76" id="Fill-32" fill="#CDCADC" sketch:type="MSShapeGroup"></path>
            <path d="M48.747,37.676 C45.41,39.353 42.6,42.052 41.056,45.464 C42.6,42.052 45.41,39.353 48.747,37.676" id="Fill-33" fill="#FFFFFF" sketch:type="MSShapeGroup"></path>
            <path d="M51.047,36.712 C50.26,36.98 49.491,37.303 48.747,37.676 C49.491,37.303 50.26,36.98 51.047,36.712" id="Fill-34" fill="#6E6967" sketch:type="MSShapeGroup"></path>
            <path d="M59.755,36.056 C59.763,36.057 59.771,36.059 59.779,36.06 C59.771,36.059 59.763,36.057 59.755,36.056 M59.725,36.05 C59.734,36.052 59.744,36.054 59.753,36.055 C59.743,36.053 59.734,36.052 59.725,36.05" id="Fill-35" fill="#CDCADC" sketch:type="MSShapeGroup"></path>
            <path d="M45.165,44.636 C43.783,44.636 42.393,45.052 41.056,45.464 C42.393,45.052 43.782,44.637 45.164,44.637 C45.455,44.637 45.746,44.655 46.036,44.696 C46.036,44.696 46.036,44.695 46.037,44.695 C45.747,44.654 45.456,44.636 45.165,44.636" id="Fill-36" fill="#FFFFFF" sketch:type="MSShapeGroup"></path>
            <path d="M62,36.683 C62.011,36.687 62.022,36.691 62.032,36.695 C62.021,36.691 62.011,36.687 62,36.683 M56.689,35.76 C54.78,35.76 52.866,36.092 51.047,36.712 C50.26,36.98 49.491,37.303 48.747,37.676 C45.41,39.353 42.6,42.052 41.056,45.464 C42.393,45.052 43.783,44.636 45.165,44.636 C45.456,44.636 45.747,44.654 46.037,44.695 C49.292,40.833 54.383,38.508 59.438,38.508 C59.517,38.508 59.595,38.509 59.674,38.51 C59.782,37.701 59.833,36.885 59.824,36.07 C60.56,36.219 61.287,36.422 61.998,36.682 C61.895,36.645 61.793,36.609 61.69,36.573 C61.656,36.562 61.622,36.55 61.587,36.539 C61.56,36.53 61.532,36.52 61.505,36.511 C61.405,36.479 61.306,36.448 61.206,36.417 C61.197,36.415 61.189,36.412 61.181,36.41 C60.719,36.271 60.25,36.154 59.779,36.06 C59.771,36.059 59.763,36.057 59.755,36.056 L59.753,36.055 C59.744,36.054 59.734,36.052 59.725,36.05 C59.681,36.041 59.638,36.033 59.594,36.025 C58.636,35.847 57.663,35.761 56.689,35.76" id="Fill-37" fill="#B98CB3" sketch:type="MSShapeGroup"></path>
            <path d="M62.574,40.095 C62.574,40.563 62.554,41.031 62.515,41.498 C62.554,41.031 62.574,40.563 62.574,40.095 M61.998,36.682 C61.998,36.682 61.999,36.683 62,36.683 C61.999,36.683 61.998,36.682 61.998,36.682" id="Fill-38" fill="#0D050D" sketch:type="MSShapeGroup"></path>
            <path d="M59.36,50.138 C58.58,51.227 57.667,52.221 56.633,53.081 C56.417,53.26 56.194,53.435 55.964,53.601 C56.194,53.435 56.417,53.26 56.633,53.081 C57.667,52.221 58.58,51.227 59.36,50.138" id="Fill-39" fill="#804977" sketch:type="MSShapeGroup"></path>
            <path d="M48.527,51.767 C48.526,51.771 48.526,51.775 48.526,51.779 C48.526,51.775 48.526,51.771 48.527,51.767 M48.527,51.757 L48.527,51.76 L48.527,51.757" id="Fill-40" fill="#804977" sketch:type="MSShapeGroup"></path>
            <path d="M51.756,55.039 C51.806,55.044 51.856,55.048 51.906,55.05 C51.974,55.053 52.041,55.055 52.108,55.055 C52.041,55.055 51.974,55.053 51.906,55.05 C51.856,55.048 51.806,55.044 51.756,55.039 M51.752,55.039 L51.753,55.039 L51.752,55.039" id="Fill-41" fill="#804977" sketch:type="MSShapeGroup"></path>
            <path d="M62.515,41.498 L62.515,41.498 C62.259,44.589 61.163,47.62 59.36,50.138 C61.163,47.62 62.259,44.589 62.515,41.498" id="Fill-42" fill="#0D050D" sketch:type="MSShapeGroup"></path>
            <path d="M61.935,35.584 C62.244,36.636 62.438,37.717 62.523,38.807 C61.584,38.621 60.631,38.523 59.674,38.51 C59.124,42.632 57.09,46.572 53.886,49.235 C52.598,50.306 51.039,51.209 49.375,51.209 C49.303,51.209 49.231,51.208 49.159,51.204 C48.986,51.196 48.813,51.171 48.642,51.137 C48.585,51.339 48.544,51.545 48.527,51.757 L48.527,51.76 L48.527,51.767 C48.526,51.771 48.526,51.775 48.526,51.779 C48.41,53.471 50.059,54.882 51.752,55.039 L51.753,55.039 L51.756,55.039 C51.806,55.044 51.856,55.048 51.906,55.05 C51.974,55.053 52.041,55.055 52.108,55.055 L52.122,55.055 C53.508,55.055 54.82,54.429 55.964,53.601 C56.194,53.435 56.417,53.26 56.633,53.081 C57.667,52.221 58.58,51.227 59.36,50.138 C61.163,47.62 62.259,44.589 62.515,41.498 C62.554,41.031 62.574,40.563 62.574,40.095 C62.574,39.285 62.515,38.477 62.396,37.677 C62.29,36.97 62.137,36.271 61.935,35.584 M61.927,35.557 C61.929,35.565 61.932,35.573 61.934,35.581 C61.932,35.573 61.929,35.565 61.927,35.557 M61.918,35.526 C61.92,35.534 61.922,35.541 61.924,35.548 C61.922,35.541 61.92,35.534 61.918,35.526 M61.904,35.481 C61.908,35.493 61.912,35.506 61.915,35.518 C61.912,35.506 61.908,35.493 61.904,35.481 M61.895,35.449 C61.896,35.455 61.898,35.461 61.9,35.467 C61.898,35.461 61.896,35.455 61.895,35.449 M61.885,35.417 C61.886,35.422 61.888,35.427 61.889,35.432 C61.888,35.427 61.886,35.422 61.885,35.417 M61.873,35.379 C61.874,35.382 61.875,35.384 61.875,35.386 C61.875,35.384 61.874,35.382 61.873,35.379 M61.862,35.342 C61.863,35.345 61.864,35.349 61.865,35.353 C61.864,35.349 61.863,35.346 61.862,35.342 M61.851,35.308 C61.852,35.311 61.853,35.315 61.854,35.318 C61.853,35.315 61.852,35.311 61.851,35.308 M61.827,35.232 C61.828,35.235 61.829,35.238 61.83,35.241 C61.829,35.238 61.828,35.235 61.827,35.232 M61.816,35.197 C61.817,35.201 61.818,35.203 61.819,35.207 C61.818,35.204 61.817,35.2 61.816,35.197" id="Fill-43" fill="#5A2B67" sketch:type="MSShapeGroup"></path>
            <path d="M61.805,35.164 L62.032,36.695 C62.022,36.691 62.011,36.687 62,36.683 C61.999,36.683 61.998,36.682 61.998,36.682 C61.287,36.422 60.56,36.219 59.824,36.07 C59.833,36.885 59.782,37.701 59.674,38.51 C60.631,38.523 61.584,38.621 62.523,38.807 C62.438,37.717 62.244,36.636 61.935,35.584 C61.935,35.583 61.934,35.582 61.934,35.581 C61.932,35.573 61.929,35.565 61.927,35.557 C61.926,35.554 61.925,35.551 61.924,35.548 C61.922,35.541 61.92,35.534 61.918,35.526 C61.917,35.524 61.916,35.521 61.915,35.518 C61.912,35.506 61.908,35.493 61.904,35.481 C61.903,35.476 61.901,35.471 61.9,35.467 C61.898,35.461 61.896,35.455 61.895,35.449 C61.893,35.444 61.891,35.438 61.889,35.432 C61.888,35.427 61.886,35.422 61.885,35.417 C61.882,35.407 61.879,35.397 61.875,35.386 C61.875,35.384 61.874,35.382 61.873,35.379 C61.871,35.371 61.868,35.361 61.865,35.353 C61.864,35.349 61.863,35.345 61.862,35.342 C61.859,35.334 61.857,35.326 61.854,35.318 C61.853,35.315 61.852,35.311 61.851,35.308 C61.844,35.285 61.837,35.263 61.83,35.241 C61.829,35.238 61.828,35.235 61.827,35.232 C61.824,35.223 61.821,35.215 61.819,35.207 C61.818,35.203 61.817,35.201 61.816,35.197 C61.812,35.186 61.809,35.175 61.805,35.164" id="Fill-44" fill="#6D396F" sketch:type="MSShapeGroup"></path>
            <path d="M12.766,114.255 C12.766,114.255 23.882,105.338 24.394,100.887 C24.394,100.887 26.898,109.981 23.256,111.486 C23.256,111.486 16.564,115.043 12.766,114.255" id="Fill-45" fill="#F8D7E0" sketch:type="MSShapeGroup"></path>
            <path d="M13.95,115.463 C13.458,115.463 12.985,115.422 12.543,115.33 C12.126,115.244 11.797,114.925 11.698,114.511 C11.598,114.097 11.747,113.664 12.078,113.397 C16.24,110.058 22.967,103.675 23.302,100.761 C23.363,100.239 23.785,99.832 24.309,99.792 C24.833,99.754 25.314,100.088 25.453,100.595 C25.735,101.618 28.07,110.608 23.727,112.479 C23.141,112.787 17.92,115.463 13.95,115.463 L13.95,115.463 Z M23.977,104.462 C21.947,107.516 18.337,110.918 15.893,113.058 C18.515,112.534 21.489,111.18 22.74,110.515 L22.836,110.47 C24.152,109.927 24.312,107.185 23.977,104.462 L23.977,104.462 Z" id="Fill-46" fill="#1B1A19" sketch:type="MSShapeGroup"></path>
            <path d="M8.333,95.363 C8.333,95.363 10.37,98.265 8.333,100.887" id="Fill-47" fill="#FFFFFF" sketch:type="MSShapeGroup"></path>
            <path d="M8.332,101.986 C8.097,101.986 7.86,101.911 7.659,101.755 C7.18,101.383 7.093,100.692 7.465,100.213 C8.987,98.254 7.45,96.017 7.434,95.994 C7.085,95.497 7.205,94.812 7.702,94.464 C8.198,94.115 8.884,94.235 9.232,94.732 C10.098,95.965 11.206,98.98 9.201,101.561 C8.984,101.84 8.66,101.986 8.332,101.986" id="Fill-48" fill="#1B1A19" sketch:type="MSShapeGroup"></path>
            <path d="M45.986,70.652 C45.986,73.126 43.413,75.132 40.238,75.132 C37.063,75.132 34.49,73.126 34.49,70.652 C34.49,68.177 37.063,66.171 40.238,66.171 C43.413,66.171 45.986,68.177 45.986,70.652" id="Fill-49" fill="#A1D8EB" sketch:type="MSShapeGroup"></path>
            <path d="M40.238,76.231 C36.462,76.231 33.391,73.728 33.391,70.652 C33.391,67.576 36.462,65.073 40.238,65.073 C44.013,65.073 47.085,67.576 47.085,70.652 C47.085,73.728 44.013,76.231 40.238,76.231 L40.238,76.231 Z M40.238,67.27 C37.674,67.27 35.589,68.787 35.589,70.652 C35.589,72.517 37.674,74.034 40.238,74.034 C42.802,74.034 44.887,72.517 44.887,70.652 C44.887,68.787 42.802,67.27 40.238,67.27 L40.238,67.27 Z" id="Fill-50" fill="#1B1A19" sketch:type="MSShapeGroup"></path>
            <path d="M39.85,70.933 C39.85,72.233 38.797,73.287 37.497,73.287 C36.197,73.287 35.143,72.233 35.143,70.933 C35.143,69.634 36.197,68.58 37.497,68.58 C38.797,68.58 39.85,69.634 39.85,70.933" id="Fill-51" fill="#1B1A19" sketch:type="MSShapeGroup"></path>
            <path d="M44.732,67.86 C44.732,67.86 47.001,70.662 50.441,67.041" id="Fill-52" fill="#FFFFFF" sketch:type="MSShapeGroup"></path>
            <path d="M47.002,69.993 L46.838,69.99 C45.035,69.918 43.991,68.691 43.878,68.551 C43.496,68.08 43.569,67.388 44.04,67.006 C44.509,66.627 45.194,66.696 45.578,67.158 C45.613,67.199 46.127,67.774 46.951,67.795 C47.76,67.813 48.686,67.293 49.644,66.284 C50.062,65.844 50.758,65.827 51.198,66.244 C51.638,66.662 51.656,67.358 51.238,67.798 C49.853,69.255 48.429,69.993 47.002,69.993" id="Fill-53" fill="#1B1A19" sketch:type="MSShapeGroup"></path>
            <path d="M62.574,21.147 C62.574,21.147 68.002,18.975 70.717,36.898 C70.717,36.898 68.551,42.963 62.574,41.695 C62.574,41.695 61.984,23.274 62.574,21.147" id="Fill-54" fill="#F8D7E0" sketch:type="MSShapeGroup"></path>
            <path d="M64.156,42.967 C63.585,42.967 62.982,42.905 62.346,42.77 C61.851,42.665 61.492,42.236 61.475,41.731 C61.376,38.626 60.91,23.031 61.515,20.854 C61.606,20.523 61.847,20.254 62.165,20.127 C62.301,20.073 63.539,19.622 65.133,20.534 C68.197,22.288 70.441,27.738 71.804,36.733 C71.831,36.913 71.813,37.097 71.752,37.268 C70.991,39.398 68.501,42.967 64.156,42.967 L64.156,42.967 Z M63.643,40.747 C65.342,40.893 66.819,40.329 68.043,39.064 C68.894,38.186 69.389,37.204 69.585,36.762 C67.935,26.127 65.408,23.224 64.041,22.441 C63.848,22.331 63.674,22.262 63.526,22.22 C63.291,25.151 63.453,34.418 63.643,40.747 L63.643,40.747 Z" id="Fill-55" fill="#1B1A19" sketch:type="MSShapeGroup"></path>
            <path d="M36.392,12.985 C34.229,10.917 32.452,8.99 30.994,7.197 C31.041,7.09 31.07,6.974 31.085,6.854 C32.239,6.706 33.528,6.609 34.975,6.577 C33.528,6.609 32.235,6.57 31.077,6.475 C31.056,6.355 31.022,6.241 30.97,6.136 C32.346,4.279 34.034,2.273 36.101,0.11 C34.034,2.273 32.106,4.051 30.315,5.507 C30.206,5.461 30.091,5.432 29.971,5.418 C29.823,4.264 29.725,2.974 29.693,1.527 C29.725,2.974 29.687,4.267 29.591,5.426 C29.472,5.446 29.358,5.48 29.252,5.531 C27.397,4.157 25.39,2.468 23.227,0.401 C25.39,2.468 27.167,4.396 28.624,6.188 C28.578,6.297 28.549,6.411 28.533,6.532 C27.381,6.679 26.091,6.777 24.643,6.81 C26.091,6.777 27.384,6.816 28.542,6.911 C28.563,7.031 28.597,7.145 28.648,7.25 C27.274,9.107 25.585,11.112 23.518,13.276 C25.585,11.112 27.514,9.336 29.305,7.879 C29.413,7.925 29.528,7.954 29.649,7.969 C29.796,9.122 29.893,10.412 29.926,11.858 C29.893,10.412 29.933,9.119 30.028,7.96 C30.147,7.94 30.262,7.906 30.368,7.855 C32.223,9.229 34.229,10.917 36.392,12.985" id="Fill-56" fill="#FFFFFF" sketch:type="MSShapeGroup"></path>
            <path d="M42.122,20.082 C34.189,20.082 32.694,17.019 32.631,16.883 L33.626,16.417 C33.64,16.445 35.132,19.217 43.119,18.967 L43.154,20.066 C42.799,20.077 42.454,20.082 42.122,20.082" id="Fill-57" fill="#1B1A19" sketch:type="MSShapeGroup"></path>
            <path d="M48.632,25.839 C45.042,25.839 42.199,25.37 40.167,24.443 C38.406,23.639 37.907,22.763 37.856,22.666 L38.829,22.155 L38.343,22.411 L38.823,22.145 C38.84,22.174 40.58,24.978 49.812,24.723 L49.842,25.822 C49.43,25.833 49.026,25.839 48.632,25.839" id="Fill-58" fill="#1B1A19" sketch:type="MSShapeGroup"></path>
            <path d="M56.789,31.784 C45.035,31.784 42.716,29.004 42.482,28.674 L43.379,28.039 L42.93,28.356 L43.371,28.028 C43.394,28.057 45.784,30.926 58.387,30.669 L58.409,31.768 C57.851,31.779 57.31,31.784 56.789,31.784" id="Fill-59" fill="#1B1A19" sketch:type="MSShapeGroup"></path>
            <path d="M130.537,114.214 C131.068,115.489 131.135,116.96 130.596,118.236 L130.597,118.236 C131.135,116.96 131.067,115.489 130.537,114.214 M107.614,88.279 C106.914,88.62 106.165,88.775 105.409,88.775 C104.764,88.775 104.114,88.662 103.486,88.455 C104.114,88.662 104.764,88.775 105.409,88.775 C106.165,88.775 106.914,88.62 107.614,88.279 M113.273,85.27 C115.768,85.491 116.894,88.651 117.343,91.195 C116.894,88.651 115.768,85.491 113.273,85.27 M112.994,85.258 L112.994,85.258 L113.023,85.258 L112.994,85.258 M98.271,82.352 C98.557,83.471 98.993,84.538 99.632,85.502 C98.993,84.538 98.557,83.471 98.271,82.352 M98.136,66.976 C98.203,67.422 98.249,67.869 98.278,68.317 C98.249,67.869 98.203,67.422 98.136,66.976 M86.419,59.473 C86.461,59.476 86.503,59.478 86.546,59.48 C86.503,59.478 86.461,59.476 86.419,59.473 M90.647,59.29 C90.049,59.29 89.446,59.341 88.843,59.391 C88.24,59.442 87.636,59.492 87.033,59.492 C86.873,59.492 86.713,59.489 86.553,59.481 C86.713,59.489 86.873,59.492 87.034,59.492 C87.636,59.492 88.24,59.442 88.843,59.391 C89.446,59.341 90.049,59.29 90.647,59.29 C91.135,59.29 91.62,59.324 92.101,59.418 C93.282,59.65 94.313,60.229 95.177,61.029 C94.313,60.229 93.282,59.65 92.101,59.418 C91.62,59.324 91.135,59.29 90.647,59.29 M77.706,42.549 C77.233,44.843 77.025,47.161 77.329,49.482 C77.895,53.805 80.82,58.118 84.91,59.221 C80.82,58.118 77.895,53.805 77.329,49.482 C77.025,47.161 77.233,44.843 77.706,42.549" id="Fill-60" fill="#804977" sketch:type="MSShapeGroup"></path>
            <path d="M81.796,34.882 C81.165,34.953 80.519,35.059 79.857,35.202 C79.041,37.605 78.218,40.063 77.706,42.549 C77.233,44.843 77.025,47.161 77.329,49.482 C77.895,53.805 80.82,58.118 84.91,59.221 C85.397,59.352 85.9,59.438 86.419,59.473 C86.461,59.476 86.503,59.478 86.546,59.48 C86.548,59.48 86.551,59.481 86.553,59.481 C86.713,59.489 86.873,59.492 87.033,59.492 C87.636,59.492 88.24,59.442 88.843,59.391 C89.446,59.341 90.049,59.29 90.647,59.29 C91.135,59.29 91.62,59.324 92.101,59.418 C93.282,59.65 94.313,60.229 95.177,61.029 C96.759,62.495 97.779,64.702 98.121,66.878 C98.126,66.911 98.131,66.943 98.136,66.976 C98.203,67.422 98.249,67.869 98.278,68.317 C98.467,71.215 97.952,74.147 97.826,77.065 C97.75,78.828 97.837,80.65 98.271,82.352 C98.557,83.471 98.993,84.538 99.632,85.502 C99.674,85.565 99.716,85.628 99.76,85.69 C100.655,86.966 102.011,87.97 103.486,88.455 C104.114,88.662 104.764,88.775 105.409,88.775 C106.165,88.775 106.914,88.62 107.614,88.279 C109.494,87.363 110.91,85.258 112.994,85.258 L113.023,85.258 L113.027,85.258 C113.111,85.259 113.193,85.263 113.273,85.27 C115.768,85.491 116.894,88.651 117.343,91.195 C118.661,98.661 119.979,106.127 121.297,113.593 C122.227,111.992 124.089,111.048 125.928,111.048 C126.687,111.048 127.441,111.209 128.125,111.55 C129.227,112.1 130.065,113.08 130.537,114.214 C131.067,115.489 131.135,116.96 130.597,118.236 C130.647,118.19 130.697,118.143 130.747,118.097 C130.841,117.796 130.902,117.487 130.936,117.175 C131.967,115.754 132.864,114.239 133.628,112.654 C133.344,111.041 132.345,109.539 130.872,108.803 C130.189,108.462 129.434,108.301 128.675,108.301 C126.836,108.301 124.974,109.244 124.044,110.846 C122.726,103.38 121.408,95.914 120.09,88.448 C119.627,85.822 118.441,82.54 115.774,82.511 L115.741,82.511 C113.657,82.511 112.241,84.616 110.361,85.532 C109.662,85.873 108.912,86.028 108.156,86.028 C105.997,86.028 103.783,84.763 102.507,82.943 C100.784,80.486 100.444,77.316 100.573,74.318 C100.72,70.916 101.396,67.495 100.868,64.131 C100.34,60.767 98.19,57.327 94.848,56.671 C94.367,56.577 93.882,56.543 93.394,56.543 C92.795,56.543 92.193,56.594 91.59,56.644 C90.987,56.695 90.383,56.745 89.781,56.745 C89.575,56.745 89.37,56.739 89.166,56.726 C84.297,56.399 80.71,51.573 80.076,46.735 C79.683,43.734 80.147,40.739 80.93,37.794 C80.784,37.791 80.638,37.789 80.49,37.789 C80.024,37.789 79.549,37.808 79.067,37.847 C79.324,37.052 79.591,36.261 79.857,35.477 C80.488,35.34 81.103,35.237 81.705,35.166 C81.735,35.071 81.766,34.977 81.796,34.882" id="Fill-61" fill="#5A2B67" sketch:type="MSShapeGroup"></path>
            <path d="M140.247,94.741 C140.213,103.468 137.098,112.21 130.747,118.097 C130.704,118.237 130.654,118.375 130.596,118.511 C137.116,112.561 140.278,103.628 140.247,94.741" id="Fill-62" fill="#FFFFFF" sketch:type="MSShapeGroup"></path>
            <path d="M83.786,35.041 C83.108,35.041 82.416,35.082 81.705,35.166 C81.428,36.037 81.165,36.913 80.93,37.794 C85.672,37.917 89.719,40.025 94.199,42.979 C103.361,49.019 112.592,55.115 120.354,62.871 C128.117,70.627 134.404,80.258 136.363,91.055 C137.676,98.296 136.795,106.08 133.628,112.654 C133.777,113.495 133.731,114.367 133.456,115.176 C132.63,116.21 131.727,117.188 130.747,118.097 C137.098,112.21 140.213,103.468 140.247,94.741 C140.239,92.58 140.042,90.42 139.659,88.308 C137.7,77.512 131.413,67.88 123.651,60.124 C115.888,52.368 106.657,46.272 97.496,40.232 C92.877,37.188 88.719,35.041 83.786,35.041" id="Fill-63" fill="#B98CB3" sketch:type="MSShapeGroup"></path>
            <path d="M133.628,112.654 C132.864,114.239 131.967,115.754 130.936,117.175 C130.902,117.487 130.841,117.796 130.747,118.097 C131.727,117.188 132.63,116.21 133.456,115.176 C133.731,114.367 133.777,113.495 133.628,112.654 M81.705,35.166 C81.103,35.237 80.488,35.34 79.857,35.477 C79.591,36.261 79.324,37.052 79.067,37.847 C79.549,37.808 80.024,37.789 80.49,37.789 C80.638,37.789 80.784,37.791 80.93,37.794 C81.165,36.913 81.428,36.037 81.705,35.166" id="Fill-64" fill="#9A7E9F" sketch:type="MSShapeGroup"></path>
            <path d="M78.698,34.883 C76.3,41.953 73.976,50.299 79.19,56.722 C81.112,59.089 83.853,60.641 86.936,60.694 C88.909,60.728 91.015,60.076 92.9,60.921 C94.432,61.608 95.527,63.05 96.198,64.548 C97.876,68.297 96.868,72.624 96.65,76.554 C96.459,80.002 96.797,83.753 98.947,86.599 C100.742,88.976 103.906,90.502 106.892,89.805 C108.364,89.461 109.472,88.507 110.641,87.614 C111.767,86.752 113.14,85.882 114.379,87.076 C115.526,88.181 115.902,90.014 116.184,91.515 C116.652,93.997 117.063,96.493 117.502,98.981 C118.381,103.958 119.259,108.935 120.138,113.913 C120.328,114.991 121.825,115.002 122.334,114.2 C123.423,112.484 125.831,111.682 127.675,112.673 C129.547,113.68 130.154,116.016 129.438,117.917 C128.988,119.109 130.635,119.838 131.446,119.086 C142.599,108.747 143.66,91.812 138,78.415 C131.385,62.762 117.638,52.01 103.927,42.786 C100.029,40.164 96.138,37.257 91.813,35.371 C87.857,33.647 83.772,33.177 79.538,34.043 C78.023,34.353 78.664,36.671 80.177,36.361 C88.171,34.726 94.533,39.411 100.845,43.612 C107.743,48.203 114.574,52.962 120.648,58.624 C131.254,68.509 139.98,82.045 138.961,97.095 C138.445,104.713 135.394,112.151 129.747,117.386 C130.416,117.776 131.086,118.166 131.755,118.555 C132.895,115.533 131.507,111.851 128.57,110.439 C125.603,109.013 121.979,110.275 120.259,112.987 C120.991,113.082 121.723,113.178 122.455,113.274 C121.671,108.83 120.887,104.386 120.102,99.942 C119.757,97.986 119.412,96.031 119.067,94.075 C118.739,92.22 118.53,90.291 117.894,88.507 C117.029,86.086 115.228,83.677 112.344,84.117 C109.29,84.583 107.719,88.203 104.355,87.452 C100.46,86.583 99.128,82.405 99.014,78.877 C98.886,74.927 99.883,71.011 99.35,67.063 C98.952,64.108 97.564,61.14 95.059,59.402 C93.725,58.476 92.176,58.092 90.565,58.089 C88.648,58.085 86.765,58.568 84.887,57.961 C81.464,56.856 79.259,53.311 78.612,49.926 C77.684,45.064 79.475,40.063 81.016,35.522 C81.514,34.054 79.194,33.423 78.698,34.883" id="Fill-65" fill="#1B1A19" sketch:type="MSShapeGroup"></path>
            <path d="M143.635,80.894 C140.38,79.45 137.613,78.008 135.259,76.588 C135.268,76.45 135.254,76.308 135.222,76.167 C136.454,75.537 137.859,74.909 139.466,74.289 C137.859,74.909 136.396,75.385 135.06,75.746 C134.988,75.62 134.904,75.507 134.804,75.409 C135.596,72.776 136.678,69.85 138.121,66.594 C136.678,69.85 135.236,72.617 133.817,74.97 C133.677,74.962 133.536,74.976 133.395,75.008 C132.765,73.776 132.136,72.371 131.516,70.764 C132.136,72.371 132.613,73.834 132.974,75.171 C132.848,75.241 132.735,75.325 132.636,75.425 C130.005,74.634 127.078,73.551 123.822,72.108 C127.078,73.551 129.845,74.994 132.198,76.414 C132.19,76.554 132.203,76.694 132.235,76.835 C131.003,77.465 129.599,78.094 127.991,78.714 C129.599,78.094 131.062,77.616 132.397,77.256 C132.469,77.382 132.553,77.496 132.652,77.593 C131.862,80.226 130.78,83.152 129.336,86.408 C130.78,83.152 132.223,80.386 133.641,78.033 C133.782,78.04 133.922,78.026 134.063,77.994 C134.692,79.226 135.321,80.632 135.941,82.238 C135.321,80.632 134.844,79.168 134.484,77.832 C134.61,77.761 134.724,77.677 134.822,77.577 C137.453,78.369 140.38,79.45 143.635,80.894" id="Fill-66" fill="#FFFFFF" sketch:type="MSShapeGroup"></path>
            <path d="M309.707,111.901 C318.668,105.673 330.657,104.191 340.724,108.603 C350.531,112.9 357.29,121.672 359.564,132.049 C362.194,144.051 359.93,156.479 361.903,168.563 C363.506,178.378 368.685,188.566 378.405,192.43 C387.138,195.901 399.428,191.297 400.984,181.259 C401.178,180.011 399.489,179.036 398.788,180.333 C393.282,190.511 387.349,201.652 377.001,207.67 C372.32,210.392 366.893,212.028 361.446,211.646 C356.111,211.272 351.358,208.665 347.785,204.755 C344.265,200.902 341.91,196.067 340.158,191.194 C338.089,185.439 336.669,179.417 335.592,173.405 C334.401,166.761 333.752,160.023 333.628,153.274 C333.506,146.629 334.458,139.879 333.591,133.267 C332.859,127.692 330.373,121.925 325.394,118.892 C322.523,117.144 319.201,116.969 316.034,116.097 C313.543,115.412 309.412,112.891 310.879,109.681 C311.518,108.284 309.447,107.061 308.804,108.468 C307.677,110.933 308.412,113.44 310.167,115.412 C312.137,117.626 314.947,118.389 317.752,118.946 C320.77,119.546 323.641,120.168 325.97,122.318 C328.083,124.269 329.521,126.871 330.37,129.599 C332.397,136.116 331.26,143.193 331.207,149.89 C331.151,156.942 331.684,163.993 332.76,170.962 C333.779,177.56 335.241,184.156 337.373,190.489 C339.089,195.583 341.348,200.568 344.693,204.809 C348.023,209.031 352.553,212.324 357.851,213.526 C363.341,214.771 369.091,213.886 374.233,211.723 C387.27,206.238 394.454,193.396 400.863,181.546 C400.131,181.237 399.399,180.929 398.666,180.62 C397.244,189.794 385.914,193.38 378.237,189.757 C368.216,185.027 364.48,173.432 363.665,163.186 C362.73,151.439 364.538,139.308 360.945,127.876 C357.984,118.453 351,110.519 341.937,106.527 C331.112,101.759 318.199,103.08 308.493,109.825 C307.232,110.702 308.432,112.787 309.707,111.901" id="Fill-67" fill="#1B1A19" sketch:type="MSShapeGroup"></path>
            <path d="M378.252,201.258 C376.866,197.094 375.884,193.377 375.224,190.054 C375.357,189.947 375.474,189.817 375.577,189.671 C377.173,190.271 378.911,191.03 380.809,191.979 C378.911,191.03 377.263,190.091 375.826,189.174 C375.881,189.004 375.914,188.834 375.92,188.661 C378.976,187.197 382.54,185.755 386.703,184.368 C382.54,185.755 378.822,186.738 375.501,187.397 C375.392,187.263 375.263,187.146 375.117,187.045 C375.716,185.448 376.474,183.709 377.424,181.811 C376.474,183.709 375.537,185.359 374.619,186.796 C374.45,186.74 374.28,186.706 374.107,186.699 C372.644,183.646 371.201,180.081 369.814,175.917 C371.201,180.081 372.183,183.798 372.842,187.121 C372.708,187.229 372.592,187.358 372.489,187.504 C370.894,186.905 369.155,186.147 367.255,185.197 C369.155,186.147 370.804,187.084 372.24,188.001 C372.185,188.171 372.151,188.343 372.145,188.514 C369.091,189.978 365.527,191.421 361.363,192.807 C365.527,191.421 369.245,190.44 372.565,189.779 C372.675,189.913 372.804,190.029 372.95,190.131 C372.35,191.727 371.592,193.466 370.642,195.364 C371.592,193.466 372.529,191.817 373.448,190.38 C373.616,190.436 373.788,190.47 373.96,190.477 C375.423,193.531 376.866,197.094 378.252,201.258" id="Fill-68" fill="#FFFFFF" sketch:type="MSShapeGroup"></path>
            <path d="M337.104,119.057 C336.903,115.391 336.929,112.175 337.128,109.348 C337.26,109.291 337.383,109.212 337.498,109.117 C338.654,109.952 339.89,110.948 341.212,112.132 C339.89,110.948 338.766,109.827 337.808,108.77 C337.89,108.645 337.955,108.515 337.997,108.378 C340.786,107.869 343.98,107.49 347.645,107.288 C343.98,107.49 340.763,107.464 337.938,107.265 C337.879,107.133 337.8,107.01 337.705,106.896 C338.54,105.74 339.535,104.503 340.72,103.181 C339.535,104.503 338.416,105.628 337.358,106.586 C337.234,106.503 337.104,106.438 336.966,106.394 C336.458,103.609 336.079,100.414 335.877,96.748 C336.079,100.414 336.053,103.63 335.853,106.456 C335.721,106.514 335.598,106.593 335.483,106.688 C334.328,105.853 333.091,104.859 331.768,103.673 C333.091,104.859 334.216,105.978 335.173,107.034 C335.091,107.159 335.026,107.29 334.984,107.427 C332.196,107.936 329.003,108.315 325.337,108.517 C329.003,108.315 332.219,108.342 335.044,108.54 C335.103,108.673 335.181,108.795 335.277,108.909 C334.441,110.065 333.446,111.301 332.262,112.623 C333.446,111.301 334.566,110.177 335.624,109.22 C335.747,109.302 335.878,109.367 336.016,109.411 C336.523,112.198 336.903,115.391 337.104,119.057" id="Fill-69" fill="#FFFFFF" sketch:type="MSShapeGroup"></path>
            <path d="M62.352,35.536 C53.944,32.549 43.801,36.77 40.019,44.858 C39.601,45.749 40.297,46.953 41.376,46.623 C43.361,46.016 46.74,44.918 48.114,47.253 C48.717,48.275 48.079,49.211 47.706,50.19 C47.385,51.033 47.201,51.928 47.425,52.824 C48.466,56.983 53.528,56.729 56.362,54.784 C62.604,50.498 65.184,41.972 62.964,34.844 C62.505,33.372 60.184,34.001 60.646,35.483 C61.692,38.84 61.572,42.401 60.363,45.702 C59.22,48.823 56.764,52.439 53.494,53.595 C51.839,54.181 49.207,53.459 49.867,51.243 C50.38,49.523 51.268,48.167 50.367,46.368 C48.497,42.636 44.017,43.302 40.737,44.305 C41.189,44.894 41.642,45.482 42.094,46.071 C45.454,38.886 54.233,35.197 61.713,37.854 C63.173,38.373 63.802,36.051 62.352,35.536" id="Fill-70" fill="#1B1A19" sketch:type="MSShapeGroup"></path>
            <path d="M54.087,45.561 C51.351,44.348 49.027,43.136 47.048,41.943 C47.056,41.826 47.044,41.707 47.018,41.589 C48.053,41.06 49.234,40.532 50.584,40.011 C49.234,40.532 48.003,40.932 46.881,41.235 C46.821,41.129 46.75,41.034 46.666,40.952 C47.331,38.739 48.241,36.281 49.454,33.545 C48.241,36.281 47.029,38.606 45.837,40.583 C45.719,40.576 45.6,40.588 45.483,40.615 C44.953,39.58 44.424,38.399 43.904,37.049 C44.424,38.399 44.825,39.629 45.128,40.752 C45.022,40.811 44.927,40.881 44.844,40.965 C42.634,40.301 40.174,39.391 37.438,38.178 C40.174,39.391 42.499,40.603 44.476,41.796 C44.469,41.914 44.481,42.032 44.507,42.15 C43.473,42.679 42.292,43.208 40.941,43.729 C42.292,43.208 43.522,42.807 44.644,42.504 C44.704,42.61 44.775,42.706 44.858,42.787 C44.194,44.999 43.284,47.458 42.071,50.194 C43.284,47.458 44.497,45.134 45.689,43.156 C45.807,43.163 45.925,43.151 46.043,43.124 C46.572,44.159 47.101,45.34 47.621,46.69 C47.101,45.34 46.7,44.11 46.397,42.988 C46.503,42.928 46.599,42.858 46.681,42.774 C48.893,43.439 51.351,44.348 54.087,45.561" id="Fill-71" fill="#FFFFFF" sketch:type="MSShapeGroup"></path>
        </g>
    </g>
</svg>